<?xml version="1.0" standalone="no"?>
<!DOCTYPE svg PUBLIC "-//W3C//DTD SVG 1.1//EN" "http://www.w3.org/Graphics/SVG/1.1/DTD/svg11.dtd" >
<svg xmlns="http://www.w3.org/2000/svg" xmlns:xlink="http://www.w3.org/1999/xlink" version="1.1">
<metadata></metadata>
<defs>
<font id="pf_agora_serif_proitalic" horiz-adv-x="1089" >
<font-face units-per-em="2048" ascent="1536" descent="-512" />
<missing-glyph horiz-adv-x="532" />
<glyph unicode="&#xfb01;" horiz-adv-x="1150" d="M-287 -387q0 27 13.5 51.5t46.5 46.5q66 -45 120 -65.5t101 -20.5q45 0 81 23.5t60.5 65.5t41 100.5t26.5 128.5l125 905h-199l8 51l207 49q6 35 13.5 91.5t24.5 118t48 123.5t82 112.5t126 82t181 31.5q113 0 178.5 -32.5t65.5 -92.5q0 -33 -15.5 -63.5t-62.5 -54.5 q-86 53 -147.5 78.5t-122.5 25.5q-102 0 -146.5 -81t-60.5 -218l-16 -133h229q23 0 60.5 2t82.5 6t93.5 10.5t91.5 14.5q4 -2 10 -4q4 -2 8 -4.5t8 -4.5q-23 -115 -47 -239.5t-45.5 -240.5t-40 -213t-27.5 -159q51 4 98.5 19.5t100.5 44.5l27 -31q-20 -25 -50 -52.5t-65 -51 t-71.5 -38.5t-71.5 -15q-68 0 -93.5 27.5t-25.5 74.5q0 14 2 33.5t6 36.5q29 172 59.5 344t65.5 352h-418l-94 -655q-16 -109 -41 -231t-77 -223t-139 -168t-226 -67q-86 0 -137.5 30t-51.5 79z" />
<glyph unicode="&#xfb02;" horiz-adv-x="1179" d="M-287 -387q0 27 13.5 51.5t46.5 46.5q66 -45 120 -65.5t101 -20.5q45 0 81 23.5t60.5 65.5t41 100.5t26.5 128.5l125 905h-199l8 51l207 49q6 37 13.5 92.5t24.5 117t48 122.5t82 111.5t126 82t181 33.5q78 0 137 -18l160 31l25 -21q-37 -242 -71 -474t-75 -472 q-18 -115 -37.5 -227.5t-35.5 -221.5q53 4 98 19.5t98 44.5l29 -33q-20 -25 -50 -51.5t-65 -50t-72.5 -38.5t-70.5 -15q-70 0 -93.5 28.5t-23.5 75.5q0 31 6 68l68 407q31 182 59.5 364.5t55.5 374.5q-72 37 -132.5 53.5t-113.5 16.5t-89 -21.5t-59.5 -60.5t-37 -94 t-21.5 -123l-16 -133h292l-16 -88h-289l-94 -655q-16 -109 -41 -231t-77 -223t-139 -168t-226 -67q-86 0 -137.5 30t-51.5 79z" />
<glyph unicode="&#xfb03;" horiz-adv-x="1769" d="M-289 -432q0 27 13.5 51.5t46.5 46.5q131 -86 221 -86t140 89t69 229l131 950h-199l8 51l207 49q4 27 12.5 79t28 114.5t52 129t83.5 120t124 88t175 34.5q86 0 137.5 -29.5t51.5 -78.5q0 -27 -12.5 -51.5t-47.5 -46.5q-55 35 -110.5 60.5t-98.5 25.5q-53 0 -91 -26 t-64.5 -69t-44 -100t-27.5 -123l-20 -139h467q4 35 12 93t27.5 125t51 134.5t84 122.5t127 90t179.5 35q111 0 177.5 -33t66.5 -92q0 -33 -16.5 -63.5t-63.5 -55.5q-86 53 -146.5 79t-122.5 26q-51 0 -85.5 -20.5t-59.5 -59.5t-39 -94.5t-22 -124.5l-21 -162h229q23 0 61 2 t83 6t93 10.5t91 14.5q4 -2 10 -4q4 -2 8.5 -4.5t8.5 -4.5q-23 -115 -47.5 -239.5t-47 -240.5t-40 -213t-25.5 -159q49 4 97 19.5t102 44.5l26 -31q-20 -25 -50 -52.5t-64.5 -51t-72.5 -38.5t-71 -15q-68 0 -93.5 27.5t-25.5 74.5q0 14 2.5 33.5t6.5 36.5q29 172 59.5 344 t65.5 352h-418l-94 -655q-16 -109 -41 -231t-77 -223t-140.5 -168t-227.5 -67q-86 0 -136 30t-50 79q0 27 13 51.5t46 46.5q66 -45 120 -65.5t101 -20.5q45 0 81 23.5t60.5 65.5t41 100.5t26.5 128.5l125 905h-465l-100 -703q-16 -109 -41 -229.5t-77 -223t-139 -169 t-226 -66.5q-86 0 -137.5 31t-51.5 80z" />
<glyph unicode="&#xfb04;" horiz-adv-x="1769" d="M-289 -432q0 27 13.5 51.5t46.5 46.5q131 -86 221 -86t140 89t69 229l131 950h-199l8 51l207 49q4 27 13.5 79t30 114.5t53 129t84 120t124 88t170.5 34.5q86 0 137.5 -29.5t51.5 -78.5q0 -27 -12.5 -51.5t-47.5 -46.5q-55 35 -110.5 60.5t-98.5 25.5q-53 0 -91 -26 t-64.5 -69t-44 -100t-27.5 -123l-20 -139h467q4 33 12 90t26.5 124t51 135.5t85 123.5t127 91t181.5 36q78 0 137 -18l160 30l24 -20q-29 -219 -67.5 -455.5t-79.5 -474.5q-23 -129 -42 -253t-38 -241q51 4 97 19.5t100 44.5l28 -33q-20 -25 -49.5 -51.5t-65.5 -50 t-73 -38.5t-70 -15q-70 0 -93 28.5t-23 75.5q0 31 6 68q16 104 36.5 222t36.5 222q31 180 62 362.5t55 368.5q-72 37 -132 53.5t-114 16.5q-55 0 -89.5 -21.5t-57.5 -60.5t-36 -94.5t-23 -122.5l-25 -162h293l-17 -88h-288l-94 -655q-16 -109 -41 -231t-77 -223t-140.5 -168 t-227.5 -67q-86 0 -136 30t-50 79q0 27 13 51.5t46 46.5q66 -45 120 -65.5t101 -20.5q45 0 81 23.5t60.5 65.5t41 100.5t26.5 128.5l123 905h-461l-100 -703q-16 -109 -41 -229.5t-77 -223t-139 -169t-226 -66.5q-86 0 -137.5 31t-51.5 80z" />
<glyph horiz-adv-x="0" />
<glyph horiz-adv-x="682" />
<glyph unicode=" "  horiz-adv-x="532" />
<glyph unicode="&#x09;" horiz-adv-x="532" />
<glyph unicode="&#xa0;" horiz-adv-x="532" />
<glyph unicode="!" horiz-adv-x="528" d="M168 74q0 51 37 89t84 38q41 0 66.5 -28t25.5 -69q0 -53 -37 -90t-84 -37q-39 0 -65.5 28t-26.5 69zM283 371l43 954q0 18 6 41t19.5 41t35 31.5t53.5 13.5q51 0 70.5 -28.5t19.5 -63.5v-20.5t-2 -16.5q-47 -238 -94 -476.5t-94 -475.5h-57z" />
<glyph unicode="&#x22;" horiz-adv-x="499" d="M221 934q0 98 1 194.5t1 194.5q2 25 24.5 48.5t59.5 23.5q35 0 54.5 -22.5t9.5 -55.5l-101 -383h-49zM449 934l2 389q0 25 21.5 48.5t57.5 23.5q35 0 56.5 -22.5t11.5 -55.5l-104 -383h-45z" />
<glyph unicode="#" horiz-adv-x="989" d="M127 385l29 84h135l123 375h-144l27 88h145l113 346h86l-113 -346h289l113 346h88l-113 -346h137l-26 -88h-139l-123 -375h147q-8 -23 -13 -42t-14 -42h-151q-31 -94 -61.5 -192.5t-61.5 -192.5h-86l123 385h-289q-31 -94 -61.5 -192.5t-61.5 -192.5h-86l123 385h-135z M379 469h287l125 375h-289z" />
<glyph unicode="$" d="M154 137q14 63 28.5 122.5t28.5 121.5h59l6 -84q4 -68 34 -106.5t118 -61.5l76 619q-92 53 -148.5 131.5t-56.5 164.5q0 125 72.5 209t210.5 119l24 201h88l-219 -1784h-90l29 231q-27 6 -62 16.5t-70.5 26t-69.5 34t-58 40.5zM440 1061q0 -47 22.5 -89t61.5 -73l41 358 q-53 -27 -89 -75.5t-36 -120.5zM575 -211l222 1784h86l-25 -199q53 -10 117.5 -40.5t105.5 -69.5q-12 -59 -25.5 -114.5t-25.5 -113.5h-61l-6 88q-4 45 -16.5 72t-29 40t-36 19.5t-37.5 10.5l-62 -498q109 -59 175.5 -144t66.5 -212q0 -66 -21.5 -126.5t-63.5 -110.5 t-104.5 -89t-144.5 -59q-6 -59 -14 -119t-14 -119h-87zM705 139q100 39 145 108.5t45 147.5q0 66 -32 124.5t-103 96.5z" />
<glyph unicode="%" horiz-adv-x="1720" d="M131 877q0 74 17.5 170t61.5 181t119.5 144.5t192.5 59.5q76 0 126 -27t79 -70t40 -99t11 -116q0 -66 -16.5 -162t-59.5 -186t-118.5 -153.5t-194.5 -63.5q-78 0 -127 27.5t-78.5 71.5t-41 102.5t-11.5 120.5zM256 850q0 -43 7 -82t24.5 -67.5t47.5 -46t75 -17.5 q80 0 128 52t74.5 129t35.5 161t9 149q0 45 -7 85t-24.5 71t-48 48.5t-77.5 17.5q-55 0 -95 -28t-68 -73t-43 -100t-24.5 -110.5t-11.5 -105.5t-2 -83zM469 -80l727 1555h78l-725 -1555h-80zM985 303q0 74 17.5 170t61.5 181t119.5 144.5t192.5 59.5q76 0 126 -26.5 t79 -69.5t40 -99.5t11 -115.5q0 -66 -16.5 -162t-59.5 -186t-118.5 -153.5t-194.5 -63.5q-78 0 -127 27.5t-78.5 71.5t-41 102.5t-11.5 119.5zM1110 276q0 -43 7 -81.5t24.5 -67.5t47.5 -46.5t75 -17.5q80 0 128 52.5t74.5 129.5t35.5 160.5t9 149.5q0 45 -7 85t-24.5 70.5 t-48 48t-77.5 17.5q-55 0 -95 -27.5t-68 -72.5t-43 -100.5t-24.5 -110.5t-11.5 -105.5t-2 -83.5z" />
<glyph unicode="&#x26;" horiz-adv-x="1679" d="M248 1139q0 70 53 144.5t146.5 137t220.5 102.5t274 40q141 0 253 -34t189.5 -100.5t119.5 -167t42 -233.5q0 -104 -25.5 -207.5t-72.5 -202.5q29 -2 58.5 -3t62.5 -1q57 0 120.5 16.5t125.5 53.5l30 -37q-92 -82 -201.5 -117.5t-211.5 -35.5h-26.5t-25.5 2 q-70 -111 -160 -204t-193 -162t-216 -107.5t-223 -38.5q-172 0 -254 107.5t-82 279.5q0 186 54 326.5t131 235.5t159 143t137 48q53 0 92 -19.5t64.5 -48t38 -62t12.5 -62.5q0 -80 -42 -140.5t-101 -105.5l2 -2q43 10 83 11t74 1q98 0 184.5 -21.5t188.5 -39.5 q33 86 51.5 178t18.5 191q0 123 -37 213t-104.5 149t-160.5 88t-204 29q-98 0 -176 -24.5t-136.5 -64.5t-98.5 -90.5t-65.5 -100.5t-36.5 -95t-9 -74h-25.5t-21.5 4q-76 16 -76 101zM401 406q0 -68 12.5 -125.5t45.5 -99.5t92 -65.5t151 -23.5q80 0 161 31t155 87t139.5 134 t114.5 170q-47 12 -92 27.5t-95.5 29t-109.5 23.5t-135 10q-35 0 -65 -2t-62.5 -7t-69.5 -14.5t-84 -21.5h-2q-4 0 -8 7t-4 42q0 14 6 19q31 12 74 31.5t81.5 48t65.5 66.5t27 87q0 27 -11.5 55.5t-30 51t-44 37t-56.5 14.5q-25 0 -67.5 -39t-84.5 -116t-73 -191.5 t-31 -265.5z" />
<glyph unicode="'" horiz-adv-x="354" d="M262 934q0 98 1 194.5t1 194.5q2 25 23.5 48.5t58.5 23.5q35 0 54.5 -22.5t9.5 -55.5l-101 -383h-47z" />
<glyph unicode="(" horiz-adv-x="610" d="M176 367q0 162 38 319.5t108.5 299.5t171 267t225.5 224l31 -39q-129 -125 -212 -265.5t-131.5 -288t-65.5 -299t-17 -296.5q0 -203 53 -373t139 -303l-37 -35q-160 164 -231.5 371t-71.5 418z" />
<glyph unicode=")" horiz-adv-x="610" d="M-10 -379q129 125 212 265.5t131 288t65.5 299t17.5 296.5q0 203 -53.5 373t-139.5 303l37 35q160 -164 231.5 -371t71.5 -418q0 -162 -38 -319.5t-108.5 -300t-171 -267t-225.5 -223.5z" />
<glyph unicode="*" horiz-adv-x="872" d="M231 1077q14 106 84 203l240 -180l-47 309q23 4 50.5 8t51.5 4q47 0 95 -12l-121 -311q66 43 141.5 90t142.5 92q45 -92 35 -203l-311 -22q53 -47 109.5 -97.5t111.5 -97.5q-39 -41 -85 -73.5t-93 -51.5l-76 301q-37 -72 -75 -150.5t-74 -150.5q-41 18 -81 51t-63 72 l269 197z" />
<glyph unicode="+" d="M156 508l14 108h379l49 400h107l-50 -400h375l-14 -108h-375l-49 -402h-107l50 402h-379z" />
<glyph unicode="," horiz-adv-x="432" d="M61 -223q49 47 80 91t45 116q-31 10 -47 33.5t-16 56.5q0 51 36 89t83 38q45 0 71.5 -30t26.5 -81q0 -47 -19.5 -98t-53.5 -99.5t-80 -89.5t-99 -67q-8 10 -14 20.5t-13 20.5z" />
<glyph unicode="-" horiz-adv-x="657" d="M156 453q4 35 8 64.5t8 64.5h459q-4 -35 -8.5 -65t-8.5 -64h-458z" />
<glyph unicode="." horiz-adv-x="411" d="M113 72q0 53 35.5 91t82.5 38q41 0 67 -28t26 -69q0 -53 -37 -90t-84 -37q-41 0 -65.5 27t-24.5 68z" />
<glyph unicode="/" horiz-adv-x="612" d="M-4 -86l717 1563h73l-716 -1563h-74z" />
<glyph unicode="0" d="M121 502q0 82 11 183t37 205.5t70 204t109.5 176.5t154.5 124t206 47q115 0 189.5 -44t117.5 -117t60.5 -166t17.5 -191q0 -72 -10.5 -171.5t-36 -206t-68.5 -210t-108.5 -185t-155.5 -133t-209 -51.5q-115 0 -189.5 45t-117.5 121t-60.5 171t-17.5 198zM276 457 q0 -80 11.5 -150.5t40 -125t80 -86.5t129.5 -32q86 0 149.5 44.5t108.5 116t73.5 163.5t45 189.5t22.5 191.5t6 172q0 80 -11 152.5t-41 128t-82 88t-132 32.5q-92 0 -157.5 -49t-111 -128t-71 -176t-38.5 -195.5t-17.5 -187.5t-4.5 -148z" />
<glyph unicode="1" d="M238 0l8 70l143 34q43 10 67.5 25.5t39 36t20.5 46.5t10 56l105 885q2 29 2 52.5t-9.5 40t-31 27.5t-60.5 15l-167 19l10 69l413 54l25 -41q-35 -283 -73 -577t-72 -576q-8 -70 13 -94.5t85 -39.5l127 -28l-8 -74q-45 0 -82 1l-74 2t-78 2t-92 1q-49 0 -89 -1t-78 -2 t-74.5 -2t-79.5 -1z" />
<glyph unicode="2" d="M96 88q387 287 581.5 526.5t194.5 446.5q0 141 -79.5 207.5t-198.5 66.5q-66 0 -159 -28.5t-199 -100.5q-10 16 -21.5 27.5t-21.5 28.5q106 88 219.5 135t236.5 47q57 0 125 -15.5t126 -54.5t98 -106.5t40 -171.5q0 -135 -64.5 -268.5t-170 -259.5t-240.5 -240.5 t-274 -212.5q115 0 230.5 2t221.5 6q37 0 63.5 6t48 20.5t41 39t42.5 63.5l68 119l57 -17l-88 -340l-17 -16q-55 0 -117.5 1t-127 2t-127 2t-115.5 1h-66.5h-57.5t-85 -1t-149 -3z" />
<glyph unicode="3" d="M127 104q0 33 23.5 74t89.5 55q53 -164 252 -163q82 0 152.5 27.5t122.5 77.5t83 121t31 157q0 125 -84 194.5t-238 69.5q-29 0 -57.5 -3t-57.5 -7l-30 79q76 23 157.5 63t151.5 90t115 111.5t45 127.5t-46 108.5t-157 42.5q-51 0 -107.5 -12t-111.5 -33.5t-106.5 -51.5 t-94.5 -63l-49 54q51 49 111.5 89t126 69.5t134 46t136.5 16.5q63 0 121.5 -12.5t103.5 -39t72.5 -68.5t27.5 -103q0 -57 -26.5 -112.5t-71.5 -106t-104.5 -93.5t-122.5 -73l-2 -13q63 -8 121.5 -37.5t102.5 -78t69.5 -108.5t25.5 -130q0 -102 -43 -193.5t-125 -161 t-197.5 -110.5t-260.5 -41q-86 0 -140.5 14.5t-86 35t-44 45t-12.5 46.5z" />
<glyph unicode="4" d="M88 471q186 233 377.5 469t380.5 469l108 33l31 -25l-111 -913h226l-13 -96h-223l-20 -181q-4 -37 -1 -59.5t14 -36.5t31.5 -22.5t51.5 -14.5l90 -20l-8 -74q-41 0 -74 1t-66.5 2t-70.5 2t-86 1q-70 0 -130 -1t-124 -3l4 72l80 18q78 18 103.5 61.5t33.5 102.5l17 152 h-574zM266 504h455l94 704h-8q-72 -86 -138.5 -173t-127.5 -169q-66 -86 -134.5 -177t-140.5 -185z" />
<glyph unicode="5" d="M78 104q0 31 25.5 72t95.5 57q23 -78 83 -120.5t158 -42.5q84 0 159 31.5t131 88t89 134t33 170.5q0 80 -28.5 132t-75 82.5t-104.5 43t-116 12.5q-63 0 -116.5 -11.5t-104.5 -27.5l-55 45l110 586l5 2q2 2 5 3t7 5q8 4 14 10h178t119 1t79 1h58q35 0 57.5 4t38 11.5 t27 20.5t23.5 32l24 35l60 -11l-45 -231l-17 -14l-530 20l-105 -414q68 29 124.5 43.5t115.5 14.5q90 0 166 -22.5t130 -67.5t85 -111.5t31 -155.5q0 -123 -46 -227t-131 -181t-204 -120t-264 -43q-92 0 -148.5 14.5t-88.5 36t-42 46t-10 46.5z" />
<glyph unicode="6" d="M188 403q0 188 45.5 370.5t131.5 327t210.5 233.5t286.5 89q43 0 99.5 -9t111.5 -28l-20 -73q-59 14 -125 14q-143 0 -253 -73.5t-184.5 -197.5t-112.5 -289t-38 -345q0 -160 60.5 -255t197.5 -95q86 0 148.5 40t102.5 105.5t59.5 148.5t19.5 169q0 88 -20.5 145 t-59.5 91t-96.5 46t-128.5 12l6 74q25 4 48 6t50 2q74 0 139.5 -22.5t113.5 -68.5t75.5 -114.5t27.5 -160.5q0 -86 -25.5 -186.5t-84 -188.5t-153.5 -146.5t-234 -58.5q-115 0 -191 37t-121 98.5t-64.5 140t-21.5 162.5z" />
<glyph unicode="7" d="M221 -18q68 111 135.5 217t135.5 215q131 207 263 418.5t261 439.5l-418 -15q-47 -2 -79 -7t-56.5 -17t-45 -35.5t-44.5 -62.5l-60 -99l-55 17l88 342l19 16q111 0 213 -2t200 -2q90 0 173 1t179 3l35 -70q-94 -166 -189 -339t-188 -338q-186 -346 -378 -684l-174 -21z " />
<glyph unicode="8" d="M150 309q0 63 18 128t59 125.5t106.5 111.5t160.5 86q-86 57 -143.5 134t-57.5 169q0 90 38 160.5t102.5 119t148.5 74t174 25.5q63 0 128.5 -17.5t119 -54.5t86 -96.5t32.5 -140.5q0 -14 -1 -27t-3 -27q-4 -39 -19.5 -84t-48 -92t-85 -95t-129.5 -91q100 -59 161.5 -139 t61.5 -199q0 -90 -36 -165t-102.5 -129t-159.5 -84t-208 -30q-104 0 -180 27t-125 72t-73.5 106.5t-24.5 132.5zM307 317q0 -117 69.5 -178t196.5 -61q72 0 133.5 22.5t107.5 64.5t71.5 99.5t25.5 124.5q0 55 -24.5 100.5t-68.5 85t-108.5 76.5t-144.5 76 q-78 -45 -127 -98.5t-78.5 -107.5t-41 -107.5t-11.5 -96.5zM455 1071q0 -55 24.5 -101t65.5 -85t94 -72t111 -63q66 43 109.5 93t69 100t37 97t11.5 84q0 43 -13.5 83t-42 70t-74.5 47t-112 17q-63 0 -111.5 -18t-83 -51t-56 -75t-27.5 -87q-2 -10 -2 -19.5v-19.5z" />
<glyph unicode="9" d="M190 874q0 86 27 185.5t86 184.5t154.5 142.5t230.5 57.5q119 0 194.5 -39t120 -102.5t61.5 -144.5t17 -167q0 -188 -31.5 -372.5t-101 -329t-182.5 -233.5t-272 -89q-51 0 -107.5 7.5t-101.5 23.5l24 72q57 -14 117 -15q147 0 243.5 74t155 199t82 286.5t27.5 337.5 q0 86 -12.5 158t-42 122t-78.5 77.5t-125 27.5q-84 0 -145.5 -38.5t-102.5 -102t-60.5 -144.5t-21.5 -165q0 -92 20.5 -150.5t60.5 -93.5t95.5 -49t126.5 -16q-2 -23 -4 -36.5t-4 -35.5q-25 -4 -46.5 -6t-47.5 -2q-76 0 -141.5 23.5t-112.5 70.5t-75 117.5t-28 164.5z" />
<glyph unicode=":" horiz-adv-x="411" d="M113 72q0 53 35.5 91t82.5 38q41 0 67 -28t26 -69q0 -53 -37 -90t-84 -37q-41 0 -65.5 27t-24.5 68zM193 735q0 51 35.5 87t82.5 36q41 0 66.5 -26.5t25.5 -67.5q0 -53 -36.5 -90t-83.5 -37q-41 0 -65.5 28.5t-24.5 69.5z" />
<glyph unicode=";" horiz-adv-x="411" d="M37 -225q51 47 82 92t47 117q-31 10 -47.5 33.5t-16.5 56.5q0 51 36 89t83 38q43 0 70.5 -30t27.5 -83q0 -45 -19 -96t-54 -99.5t-81 -89.5t-97 -67zM193 735q0 51 35.5 87t82.5 36q41 0 68 -26.5t27 -67.5q0 -53 -38 -90t-85 -37q-41 0 -65.5 28.5t-24.5 69.5z" />
<glyph unicode="&#x3c;" d="M240 514l12 92l784 395q-4 -33 -8 -60.5t-8 -59.5l-639 -322q135 -78 280.5 -160t280.5 -159l-8 -62t-8 -61z" />
<glyph unicode="=" d="M209 375l14 106h760l-14 -106h-760zM246 678l14 108h760l-14 -108h-760z" />
<glyph unicode="&#x3e;" d="M190 117l17 123l637 319q-133 74 -279.5 159t-279.5 161l16 122l686 -395l-12 -90z" />
<glyph unicode="?" horiz-adv-x="872" d="M258 1284q0 88 91 134t251 46q170 0 265.5 -58t95.5 -171q0 -43 -21.5 -85t-57.5 -82t-81 -80t-92 -79t-90.5 -77.5t-77 -77.5t-54 -78t-20.5 -80q0 -37 23.5 -89t52.5 -85l-47 -51q-78 41 -125 108.5t-47 143.5q0 43 24.5 89t63.5 92t87 92t95 89q39 35 76 70t66.5 66.5 t47 61t17.5 54.5q0 51 -41 85t-107 34t-148.5 -43t-172.5 -142q-29 16 -51.5 44t-22.5 69zM315 74q0 51 37 89t84 38q41 0 67.5 -28t26.5 -69q0 -53 -37.5 -90t-86.5 -37q-39 0 -65 28t-26 69z" />
<glyph unicode="@" horiz-adv-x="1904" d="M246 479q0 199 72.5 371t197.5 297t291 196.5t352 71.5q150 0 270.5 -47t205.5 -126t131 -184.5t46 -221.5q0 -170 -61 -294t-149.5 -204t-183.5 -119t-163 -39q-49 0 -73.5 18.5t-24.5 84.5q0 20 2 55t5 75t8.5 83t9.5 84l-15 4q-109 -199 -208 -288t-183 -89 q-59 0 -101 62.5t-42 209.5q0 94 37 200.5t94 197t129 148.5t141 58q49 0 105.5 -2t128.5 -18q16 29 27.5 38t25.5 9q8 0 24.5 -2t32 -7t26.5 -13.5t11 -20.5q0 -4 -4 -12q-23 -80 -43 -182.5t-35.5 -209t-25 -208t-9.5 -179.5q70 10 142.5 49.5t131 108t95.5 170t37 234.5 q0 102 -42 191t-117 155.5t-177 104.5t-223 38q-131 0 -269.5 -51t-251 -156.5t-185 -267.5t-72.5 -383q0 -135 44 -242.5t127 -182.5t200.5 -115t265.5 -40q129 0 217 22.5t133 45.5l24 -55q-37 -20 -84 -38t-101 -31t-110.5 -21.5t-109.5 -8.5q-158 0 -291 44t-230.5 130 t-151.5 212t-54 290zM780 532q0 -92 20.5 -134t57.5 -42t86 44t99.5 108.5t95.5 140.5t71 137q6 31 12.5 68t10.5 70q-39 37 -95 52t-91 15q-66 0 -115 -43t-83 -110.5t-51.5 -148.5t-17.5 -157z" />
<glyph unicode="A" horiz-adv-x="1347" d="M23 0l8 76l65 16q47 12 80 45t62 94l489 1006q23 45 43.5 91t40.5 93l98 19l4 -4q66 -299 135.5 -601.5t137.5 -601.5q14 -59 35.5 -97t74.5 -50l43 -10l-8 -76h-479l10 70l92 26q10 2 24.5 9.5t26 20.5t17.5 33.5t0 49.5l-53 237h-516l-91 -204q-10 -23 -15 -41.5 t-5 -34.5q0 -35 24.5 -50.5t67.5 -25.5l72 -16l-10 -74h-473zM494 532h456l-63 297l-80 377h-8l-168 -375z" />
<glyph unicode="B" horiz-adv-x="1310" d="M94 2q0 16 1 31.5t1 32.5l86 26q35 10 55.5 23.5t32 29t15.5 34t6 40.5l125 989q4 17 4 32q0 25 -10 44q-16 31 -60 37l-76 25l15 65q23 0 58.5 -1t73.5 -2t74.5 -2t61.5 -1q78 0 161 4q55 3 108 3q27 0 53 -1q109 0 180 -25.5t114.5 -66.5t60.5 -91t17 -100 q0 -68 -27.5 -124t-69.5 -98t-92 -69.5t-95 -35.5v-8q147 -29 216.5 -118t69.5 -224q0 -96 -35.5 -178.5t-104.5 -142.5t-168 -95t-224 -35q-86 0 -184.5 3t-176.5 3h-130t-136 -4zM449 233q-2 -16 -2 -30q0 -21 5 -35q9 -24 36.5 -38.5t76.5 -20t123 -5.5q100 0 177 25 t128 69t78 104t27 132q0 66 -20.5 120t-70 93t-130 61.5t-199.5 24.5l-6 82l12 12q150 8 232.5 50.5t121.5 91.5t46.5 89t7.5 44q0 109 -80 158t-221 49q-12 0 -38 -1t-56.5 -2t-62.5 -4.5t-52 -7.5q-31 -260 -66 -530t-67 -531z" />
<glyph unicode="C" horiz-adv-x="1251" d="M188 569q0 162 42 318.5t131.5 280.5t228.5 200t332 76q33 0 80 -5t97 -19.5t100 -39t91 -63.5q-16 -78 -30.5 -154t-28.5 -153l-66 -2l-6 141q-4 57 -24.5 95t-52 59.5t-73.5 29.5t-87 8q-158 0 -265.5 -70.5t-175 -183t-97.5 -252t-30 -276.5q0 -76 16.5 -160 t59.5 -155.5t120 -118.5t198 -47q96 0 187 11t191 46l25 -74q-117 -53 -231.5 -73.5t-210.5 -20.5q-135 0 -232.5 43t-162 121t-95.5 189.5t-31 248.5z" />
<glyph unicode="D" horiz-adv-x="1411" d="M113 2v59l104 35q53 18 68.5 46t19.5 69l125 1006q1 12 1 22q0 28 -8 41q-11 18 -58 35l-82 26l20 66q37 0 61.5 -1t47 -2t48 -1h64.5q45 0 84 1t75 3t74 3t81 1q166 0 277.5 -48t179 -128t95 -183.5t27.5 -215.5q0 -66 -11 -153t-41 -180t-82 -183.5t-134 -161 t-196.5 -114.5t-270.5 -44q-10 0 -52 1t-90 2t-89.5 2t-49.5 1h-80.5h-61.5t-62.5 -1t-83.5 -3zM463 242q-3 -22 -3 -39q0 -20 4 -35q7 -27 31.5 -42t67.5 -19.5t109 -4.5q158 0 269.5 63.5t182 167t102 233.5t31.5 263q0 141 -37.5 233.5t-104 147t-158 76t-197.5 21.5 q-45 0 -91 -2t-75 -7z" />
<glyph unicode="E" horiz-adv-x="1220" d="M96 0v63l99 29q35 10 61.5 35t32.5 78q31 242 61.5 497.5t61.5 499.5q3 21 3 37q-1 21 -5 35q-8 24 -60 43l-78 26l15 66q49 -2 118.5 -3t141 -1h135h102.5q94 0 157 1t132 3l139 4q4 -4 8.5 -5t8.5 -5q-8 -96 -17.5 -189.5t-19.5 -189.5l-68 -10l-24 186 q-4 47 -28.5 70.5t-88.5 23.5q-59 0 -150.5 2t-252.5 2l-62 -516q133 4 265 8.5t266 8.5l-17 -127l-526 16l-60 -469q-2 -18 -2 -33q0 -43 18 -56q24 -17 83 -17q33 0 76 1t87 2l88 2t78 1q33 0 55.5 6t39 18.5t32 33t31.5 50.5l103 187l59 -15l-94 -383l-19 -16 q-72 0 -126 1t-107 2t-111.5 2t-138.5 1h-113.5t-130 -1t-134 -2t-124.5 -3z" />
<glyph unicode="F" horiz-adv-x="1206" d="M88 0l10 68l92 28q55 16 74 43t27 80q29 244 59.5 491.5t61.5 491.5q3 21 3 37q-1 21 -5 35q-8 24 -60 43l-78 26l15 66q49 -2 118.5 -3t141 -1h135h102.5q68 0 121 1t100.5 2t96.5 2t110 3q4 -4 8.5 -5t8.5 -5q-8 -96 -17.5 -189.5t-19.5 -189.5q-20 -2 -36.5 -5 t-37.5 -5l-24 186q-6 47 -30 70.5t-87 23.5q-29 0 -64.5 1t-83 1t-109 1t-140.5 1l-66 -536q133 4 265 8t265 8l-16 -127l-526 17l-53 -441q-2 -19 -2 -34q0 -33 9 -51q13 -26 66 -40l94 -24l-10 -78h-518z" />
<glyph unicode="G" horiz-adv-x="1363" d="M193 549q0 160 44 319.5t136 287.5t234.5 208t338.5 80q33 0 82 -5t101.5 -19.5t104.5 -39t93 -63.5q-14 -78 -29.5 -151.5t-29.5 -151.5l-66 -4l-6 139q-2 57 -24.5 95t-57.5 59.5t-79 29.5t-89 8q-166 0 -278.5 -76.5t-181 -194.5t-98.5 -260t-30 -271q0 -90 18.5 -172 t63.5 -144.5t121 -100.5t191 -38q57 0 127.5 9t142.5 48l35 318q2 19 2 35q0 34 -9 54q-12 30 -65 48l-86 29l8 61h422v-72l-41 -14q-35 -12 -50 -41t-19 -76l-41 -391q-135 -68 -251 -96.5t-214 -28.5q-131 0 -228.5 41t-162 117t-97 183.5t-32.5 240.5z" />
<glyph unicode="H" horiz-adv-x="1486" d="M78 0l8 63l84 27q27 8 45 18.5t30.5 24.5t19.5 33.5t11 48.5q31 246 63 493.5t60 493.5q1 10 1 18q0 40 -15 58q-18 22 -59 37l-84 28l8 64h518l-10 -72l-80 -20q-76 -18 -97.5 -46t-27.5 -77l-51 -414h659l51 424q1 9 1 17q0 37 -16 57q-19 24 -58 39l-82 28l8 64h516 l-10 -72l-80 -20q-74 -18 -95.5 -46t-27.5 -77l-123 -983q-2 -14 -2 -26q-1 -35 13 -51q18 -22 69 -36l92 -22l-8 -74h-518l8 63l84 27q29 8 47.5 18.5t30.5 24.5t19 33.5t12 48.5l57 471h-660l-57 -477q-1 -8 -1 -16q1 -37 17 -57q20 -24 66 -40l88 -24l-8 -72h-516z" />
<glyph unicode="I" horiz-adv-x="755" d="M119 0l8 63l84 27q29 8 47 18.5t30.5 24.5t19.5 33.5t11 48.5l121 987q3 19 3 34q0 30 -11 42q-16 20 -65 37l-84 28l10 64h516l-10 -72l-80 -20q-37 -10 -60.5 -21.5t-37 -26t-19.5 -32.5t-8 -43l-121 -987q-1 -9 -1 -18q0 -38 14 -58q18 -25 67 -37l92 -22l-10 -70 h-516z" />
<glyph unicode="J" horiz-adv-x="792" d="M-43 -342q109 41 179.5 93t114.5 116.5t65.5 140.5t31.5 164l125 1030q3 19 3 34q0 30 -11 42q-16 20 -66 37l-82 28l9 64h516l-11 -72l-79 -20q-74 -18 -95.5 -46t-27.5 -77l-119 -973q-20 -139 -59 -245.5t-102.5 -183.5t-155 -127t-216.5 -77q-4 20 -10 36t-10 36z " />
<glyph unicode="K" horiz-adv-x="1323" d="M109 0l8 63l84 27q59 18 80.5 44t27.5 81l121 987q1 11 1 21q1 29 -13 49q-18 26 -62 43l-82 28l9 64h516q-2 -20 -5 -36.5t-6 -35.5l-79 -20q-37 -10 -59.5 -20.5t-35 -26t-18.5 -33.5t-10 -43l-121 -983q-1 -9 -1 -17q0 -34 14 -56q16 -28 67 -40l90 -22l-8 -74h-518z M584 707l4 26l469 492q10 10 16 24.5t6 26.5q0 27 -30 37l-62 22l10 76h430l-10 -78q-98 -37 -167.5 -92t-155.5 -135l-363 -352l385 -582q27 -41 64 -71.5t90 -53.5l-13 -80q-18 -4 -34.5 -5t-34.5 -1q-72 0 -130.5 37t-101.5 106z" />
<glyph unicode="L" horiz-adv-x="1202" d="M117 0v63l98 29q35 10 61.5 35t32.5 78l123 997q2 33 -4 52.5t-17.5 31.5t-25.5 18.5t-27 10.5l-82 28l9 64h516l-10 -72l-80 -20q-74 -18 -95.5 -46t-27.5 -77l-121 -975q-2 -18 -2 -33q-1 -43 17 -56q24 -17 83 -17q33 0 79 1t95 2t97.5 2t85.5 1q33 0 55 6t38.5 18.5 t32 33t31.5 50.5l103 189q14 -4 27.5 -7.5t27.5 -7.5q-25 -94 -49.5 -191t-46.5 -192l-19 -16q-41 0 -94 1t-86 1q-72 2 -146.5 3t-177.5 1h-113.5t-130 -1t-134 -2t-123.5 -3z" />
<glyph unicode="M" horiz-adv-x="1941" d="M45 0l8 72l103 24q31 6 51 14.5t33.5 24t23.5 42t19 69.5l192 950q3 18 3 33q0 29 -12 45q-20 26 -75 45q-23 6 -41 14t-41 15l15 65q59 -2 107 -3t99 -1h75t104 4q4 -31 9 -58.5t11 -56.5q33 -133 75 -281.5t79 -281.5l114 -424h21q53 111 111.5 226.5t113.5 226.5 q78 154 165 325t167 324q35 -2 67.5 -2h69.5h110.5t139.5 2l-6 -70l-96 -28q-68 -18 -87.5 -48t-23.5 -93l-53 -932q-1 -12 -1 -24q0 -42 12 -68q15 -33 71 -52l90 -28l-8 -70h-529l8 63l84 27q59 18 80 48t25 93l76 983h-15q-141 -279 -293.5 -576.5t-296.5 -576.5h-96 l-313 1115l-19 -2q-18 -111 -37.5 -231t-41 -240.5t-42 -240.5t-38.5 -231q-4 -26 -4 -46q0 -29 8 -45q14 -28 86 -44l90 -22l-8 -74h-539z" />
<glyph unicode="N" horiz-adv-x="1615" d="M68 0l8 68l104 26q49 14 79 42t40 106l131 925q3 21 3 40q0 32 -9 55q-14 36 -72 55l-94 29l14 65q47 -2 93.5 -2h89.5h104t80 2q12 -35 27.5 -66.5t27.5 -54.5q92 -162 188.5 -333t188.5 -330l191 -326l47 432q12 104 24.5 210t22.5 210q2 22 2 39q0 52 -16 74 q-22 30 -76 47q-18 4 -38 11t-38 11l8 72h508l-10 -74l-84 -18q-31 -8 -53.5 -18.5t-38 -29t-25.5 -48t-16 -74.5q-33 -240 -68 -484.5t-68 -486.5l-24 -176l-76 -25q-106 186 -215.5 375t-216.5 375l-266 469l-15 -2q-27 -229 -52 -473t-52 -473q-2 -20 -2 -37 q0 -50 18 -73q24 -30 76 -40l90 -20l-8 -74h-532z" />
<glyph unicode="O" horiz-adv-x="1423" d="M190 514q0 213 57.5 384t158 292t237.5 185.5t295 64.5q106 0 190 -39t143.5 -109.5t92.5 -169t35 -215.5q0 -205 -50.5 -377t-145.5 -296.5t-232 -195.5t-309 -71q-102 0 -187.5 39t-148 110.5t-98 173t-38.5 224.5zM365 592q0 -246 88 -386t284 -140q121 0 213 71.5 t155.5 184t95.5 251t32 271.5q0 104 -21.5 195t-65.5 158t-114 105.5t-164 38.5q-104 0 -195 -63.5t-160 -168.5t-108.5 -240.5t-39.5 -276.5z" />
<glyph unicode="P" horiz-adv-x="1245" d="M106 0l9 63l86 27q57 18 78.5 44t27.5 81l123 985q2 17 2 32q0 25 -6 43q-10 30 -61 46l-74 22l14 68q35 0 55.5 -1l41 -2t47 -1h73.5q86 0 180.5 3t180.5 3q92 0 167.5 -19.5t128 -61.5t81 -108.5t28.5 -158.5q0 -100 -37 -188.5t-106.5 -154t-173 -103t-234.5 -37.5 q-35 0 -94 3t-133 19l-47 -395q-1 -10 -1 -20q0 -37 14 -55q16 -22 69 -38l90 -22l-8 -74h-521zM526 705q45 -10 94.5 -13.5t71.5 -3.5q133 0 217 33t132.5 85t65.5 115.5t17 122.5q0 145 -93 206t-259 61q-45 0 -90 -4t-86 -15z" />
<glyph unicode="Q" horiz-adv-x="1423" d="M190 514q0 213 57.5 384t158 292t237.5 185.5t295 64.5q106 0 190 -39t143.5 -109.5t92.5 -169t35 -215.5q0 -182 -40 -337.5t-116 -276.5t-186.5 -202t-251.5 -109l63 -62q70 -66 117 -104.5t87 -62t80 -37t93 -27.5q0 -16 -2 -35t-2 -35q-20 -6 -38.5 -8t-41.5 -2 q-92 0 -204.5 54t-221.5 171l-129 137q-90 10 -165.5 53.5t-130 114t-86 165.5t-34.5 210zM365 596q0 -123 20.5 -221.5t65.5 -167t115.5 -105t170.5 -36.5q121 0 213 71.5t155.5 184t95.5 251t32 271.5q0 104 -21.5 195t-65.5 158t-114 105.5t-164 38.5q-104 0 -195 -63.5 t-160 -167.5t-108.5 -238.5t-39.5 -275.5z" />
<glyph unicode="R" horiz-adv-x="1310" d="M106 0l9 63l86 27q57 18 78.5 44t27.5 81l123 985q2 17 2 32q0 23 -5 42q-9 31 -62 47l-74 22l14 68q35 0 55.5 -1l41 -2t47 -1h73.5q86 0 180.5 3t180.5 3q90 0 164.5 -18.5t129 -58.5t85 -103.5t30.5 -155.5q0 -59 -21.5 -126.5t-67.5 -130t-120.5 -113t-179.5 -70.5 q49 -113 101.5 -227.5t101.5 -225.5q23 -53 57.5 -89t89.5 -60l-8 -72q-20 -6 -38.5 -7t-35.5 -1q-59 0 -111 31.5t-89 109.5l-211 527q-35 0 -102.5 3t-141.5 19l-53 -436q-1 -12 -1 -23q0 -34 14 -52q20 -22 69 -38l90 -22l-8 -74h-521zM530 745q47 -10 95.5 -13t70.5 -3 q135 0 219 32t131.5 81t63.5 108.5t16 112.5q0 137 -94 192.5t-260 55.5q-45 0 -90 -4t-86 -15z" />
<glyph unicode="S" horiz-adv-x="1169" d="M121 74l20 379l60 14l39 -156q18 -76 48.5 -123t74 -73.5t98.5 -35.5t125 -9q74 0 137 24.5t110.5 65.5t74 97t26.5 120q0 57 -23.5 102t-64.5 83t-99.5 72t-125.5 68q-78 39 -144.5 77t-118 83t-80 98.5t-28.5 124.5q0 70 25.5 134.5t82 113.5t145.5 79t216 30 q37 0 87 -4t105.5 -14.5t111.5 -28t105 -43.5l-41 -348l-63 -11l-23 103q-23 106 -97.5 169.5t-219.5 63.5q-53 0 -101 -14.5t-85 -43t-58.5 -70.5t-21.5 -97q0 -49 26.5 -87t68.5 -71t93 -58.5l99 -49.5q86 -43 157.5 -85t123.5 -91.5t82 -109.5t30 -140q0 -96 -38 -177 t-109.5 -139.5t-174 -92.5t-231.5 -34q-123 0 -233.5 29t-190.5 76z" />
<glyph unicode="T" horiz-adv-x="1277" d="M186 1024l56 377l22 12q70 -2 132.5 -4t125 -3t130 -1h151.5q145 0 272 2t268 6q4 -4 8.5 -5t8.5 -5q-8 -96 -17.5 -189.5t-17.5 -189.5l-76 -10l-18 135q-6 45 -15.5 74.5t-24.5 45t-38 21.5t-57 6h-230l-135 -1087q-2 -14 -2 -25q-1 -34 13 -52q18 -24 69 -36l90 -22 l-8 -74h-516l8 63l84 27q27 8 45 18.5t30.5 24.5t19.5 33.5t11 48.5l136 1081h-240q-66 0 -98.5 -31.5t-65.5 -119.5l-51 -131z" />
<glyph unicode="U" horiz-adv-x="1482" d="M252 1343l8 64h518q-2 -20 -5 -36.5t-5 -35.5l-82 -20q-74 -18 -95.5 -46t-27.5 -77l-84 -692q-4 -35 -7 -71t-3 -67q0 -61 13.5 -114t47 -91t92 -59.5t150.5 -21.5q113 0 183.5 35.5t111.5 96t59.5 136.5t28.5 156l86 702q4 29 2 47.5t-11 30.5t-25.5 19.5t-39.5 15.5 l-82 28l9 64h467l-11 -76l-67 -16q-76 -18 -97.5 -46t-27.5 -77l-94 -764q-29 -225 -164 -345t-371 -120q-211 0 -317.5 94.5t-106.5 276.5q0 41 6 84l99 784q2 17 2 31q0 31 -12 45q-18 20 -66 37z" />
<glyph unicode="V" horiz-adv-x="1431" d="M215 1339l10 70h307q-1 -17 -1 -36q1 -35 5 -75q8 -62 21 -122l113 -512l94 -447h16l187 432q55 131 119.5 274.5t119.5 274.5q14 34 14 56q0 8 -2 16q-8 26 -67 45l-72 22l11 72h426l-11 -72q-86 -41 -141 -124t-115 -207q-115 -248 -238.5 -509t-238.5 -509 q-27 -4 -51.5 -10.5t-52.5 -10.5l-299 1241q-4 18 -12.5 36t-26 34t-45 31.5t-70.5 29.5z" />
<glyph unicode="W" horiz-adv-x="2062" d="M203 1346l14 63h299q-1 -14 -1 -30q0 -35 6 -79q9 -62 20 -124l73 -435l91 -542h18l203 465l164 376l-39 185q-12 51 -28.5 68.5t-55.5 31.5l-58 21l15 63h313q-1 -16 -1 -33q0 -30 4 -63q7 -53 17 -107l107 -553l80 -452h18l174 489l187 506q12 33 12 55q0 13 -4 23 q-10 26 -64 41l-86 22l11 72h460l-10 -72q-88 -41 -144 -124t-114 -207l-180 -453q-53 -139 -112.5 -283.5t-112.5 -281.5q-35 -4 -68 -10.5t-70 -10.5l-106 527l-78 419h-12l-199 -442q-53 -119 -106.5 -242t-106.5 -241q-33 -4 -62.5 -10.5t-64.5 -10.5l-258 1239 q-6 29 -12 48.5t-16.5 32.5t-27 21.5t-40.5 18.5z" />
<glyph unicode="X" horiz-adv-x="1323" d="M61 0l9 74q119 27 197.5 100.5t150.5 173.5l246 346l-226 520q-27 57 -49 76t-61 31l-68 20l23 68h295q0 -35 8 -72t18 -71.5t21.5 -65.5t19.5 -49l133 -311l240 370q35 54 35 78q0 25 -47 37l-62 16l12 72h416l-10 -74q-51 -16 -96 -44.5t-85 -66.5t-74 -80t-65 -83 l-223 -313l228 -514q29 -61 55 -95t84 -53l51 -16l-8 -74h-471l8 72l63 16q45 12 61 40q6 11 7 26q0 24 -16 57l-172 399l-277 -422q-19 -30 -19 -51q1 -7 3 -15q10 -26 47 -36l51 -12l-10 -74h-443z" />
<glyph unicode="Y" horiz-adv-x="1239" d="M193 1339l10 70h289q-1 -11 -1 -22q0 -84 39 -185l191 -481h18l291 479q17 28 17 53q0 8 -1 15q-8 32 -67 49l-64 16l11 74q104 0 208.5 1t208.5 1l-10 -74q-37 -16 -66.5 -38.5t-59 -55.5t-62.5 -77t-72 -101l-293 -440l-51 -414q-1 -13 -1 -24q0 -35 14 -53 q18 -23 69 -36l90 -22l-8 -74h-516l8 63l84 27q27 8 45 18.5t30.5 24.5t19.5 33.5t11 48.5l43 340l-268 664q-10 25 -17 39t-16.5 25t-23.5 18.5t-37 15.5z" />
<glyph unicode="Z" horiz-adv-x="1193" d="M72 94l950 1200l-434 -4q-41 0 -70 -9t-49 -27.5t-34.5 -45t-28.5 -63.5l-52 -131l-67 10q14 96 29.5 188.5t29.5 188.5l16 12q111 -4 215.5 -4h210.5h212.5t211.5 2l17 -100l-948 -1196q127 2 269 3t265 5q61 2 103.5 24.5t76.5 85.5l103 193l55 -16 q-23 -100 -48.5 -196.5t-47.5 -197.5l-19 -16q-119 2 -236.5 2h-238.5h-238.5t-236.5 -2z" />
<glyph unicode="[" horiz-adv-x="542" d="M98 -322l215 1735h322l-8 -70h-189l-194 -1599h186q-2 -18 -5 -33.5t-5 -32.5h-322z" />
<glyph unicode="\" horiz-adv-x="612" d="M186 1477h78q84 -393 166 -781.5t168 -781.5h-80z" />
<glyph unicode="]" horiz-adv-x="542" d="M39 -322q2 18 5 34t5 32h189l194 1599h-186l8 70h324l-216 -1735h-323z" />
<glyph unicode="^" horiz-adv-x="954" d="M170 752l432 661h92l273 -661h-109l-225 553q-86 -135 -176 -276.5t-178 -276.5h-109z" />
<glyph unicode="_" horiz-adv-x="972" d="M-29 -264l13 96h966l-12 -96h-967z" />
<glyph unicode="`" horiz-adv-x="976" d="M430 1409l123 98l195 -352q-18 -14 -33 -26.5t-33 -26.5q-61 76 -124.5 153.5t-127.5 153.5z" />
<glyph unicode="a" horiz-adv-x="1093" d="M137 295q0 37 3 75t10 72q18 98 67 194.5t112.5 173.5t133.5 125t129 48q57 0 120.5 -4t145.5 -21q20 29 33.5 42.5t30.5 13.5q10 0 26.5 -3t32.5 -8.5t28.5 -13.5t12.5 -20q0 -10 -2 -17q-29 -90 -51.5 -198.5t-40 -222t-26.5 -224t-11 -203.5q53 4 96 19.5t94 44.5 l29 -33q-20 -25 -52 -51.5t-70 -50t-77 -38.5t-71 -15q-53 0 -80 21.5t-27 92.5q0 29 2 73t7.5 95t12.5 104.5t17 100.5l-8 2q-135 -252 -251 -368.5t-214 -116.5q-66 0 -114 72.5t-48 238.5zM301 356q0 -109 23.5 -157.5t66.5 -48.5t100.5 51t115 126.5t108.5 163t80 158.5 l28 152q-43 41 -108.5 59.5t-108.5 18.5q-76 0 -133 -49.5t-95 -126t-57.5 -169t-19.5 -178.5z" />
<glyph unicode="b" horiz-adv-x="1007" d="M145 90q57 322 104.5 636t96.5 650l-180 31q0 14 2 24.5t2 24.5q27 8 61.5 16.5t71.5 14.5t72 10t63 4q39 0 53.5 -18.5t14.5 -46.5q0 -12 -8.5 -77t-21.5 -158t-30.5 -201.5t-34 -209t-30.5 -181.5t-23 -115h9q141 252 254 368.5t213 116.5q66 0 113.5 -70.5 t47.5 -234.5q0 -80 -12 -156q-16 -98 -65.5 -194.5t-114 -173t-135 -123.5t-129.5 -47q-31 0 -75 4t-96.5 14t-108.5 28.5t-107 47.5q-6 6 -7 16zM309 160q45 -45 109.5 -61.5t109.5 -16.5q76 0 132.5 50t94.5 127t57 169t19 178q0 111 -23.5 158t-70.5 47q-43 0 -99 -51 t-113.5 -126t-107.5 -162t-79 -159z" />
<glyph unicode="c" horiz-adv-x="837" d="M147 338q-1 14 -1 28q0 68 16 133q20 79 58 150.5t91.5 135t120.5 114.5q66 47 123.5 70.5t112.5 23.5q57 0 98 -14t67.5 -35.5t38 -47.5t9.5 -46q-2 -31 -34 -59.5t-93 -45.5q-14 76 -49 105t-82 29q-53 0 -88 -17.5t-74 -54.5q-31 -31 -59.5 -82t-49.5 -111 q-22 -62 -34 -126q-10 -55 -10 -105q0 -9 1 -18q4 -133 52.5 -207t146.5 -74q57 0 134 38t149 114l36 -35q-33 -43 -79 -84t-99 -72t-109.5 -50.5t-105.5 -19.5q-145 0 -212.5 97.5t-74.5 265.5z" />
<glyph unicode="d" horiz-adv-x="1056" d="M125 264q-1 18 -1 37q0 73 13 141q16 98 64.5 194.5t112 173.5t133 125t131.5 48q57 0 118.5 -4t143.5 -21q16 111 32.5 210.5t30.5 207.5q-43 8 -91 14.5t-91 14.5l6 51q27 8 61.5 16.5t71.5 14.5t72 10t63 4q41 0 55.5 -25.5t10.5 -60.5q-16 -113 -35.5 -230.5 t-40.5 -234.5q-20 -123 -40.5 -241.5t-36 -228t-25 -205t-9.5 -171.5q53 4 97.5 20.5t95.5 45.5l27 -35q-20 -25 -52 -51.5t-70 -50t-77 -38.5t-72 -15q-57 0 -79.5 21.5t-26.5 92.5q0 29 3 73t9 95t15.5 104.5t19.5 100.5h-8q-135 -250 -252 -366.5t-215 -116.5 q-66 0 -113 65t-51 215zM287 330q4 -94 26.5 -137t63.5 -43q43 0 100.5 51t114.5 126.5t108.5 163t79.5 158.5l29 152q-43 41 -108.5 59.5t-108.5 18.5q-80 0 -138.5 -53.5t-96.5 -134.5t-55 -178q-15 -87 -15 -165v-18z" />
<glyph unicode="e" horiz-adv-x="835" d="M137 305q-1 13 -1 27q0 82 22 172q24 106 67 194q29 47 77 99.5t104.5 96.5t118 72.5t118.5 28.5q90 0 142.5 -64.5t56.5 -158.5v-7q0 -68 -38 -121q-40 -56 -111.5 -102t-170 -83t-215.5 -70q-4 -25 -5 -45t1 -41q4 -98 42 -159.5t112 -61.5q84 0 164.5 45t150.5 113 l37 -35q-29 -37 -70 -77t-94 -74t-115.5 -55.5t-132.5 -21.5q-252 0 -260 328zM317 465l5 -4q63 12 129.5 38.5t120.5 65.5q56 39 90 89q33 48 32 105v7q-4 66 -37.5 105.5t-70.5 39.5q-41 0 -82 -30.5t-78 -89t-65.5 -141.5t-43.5 -185z" />
<glyph unicode="f" horiz-adv-x="716" d="M-287 -387v7q0 54 60 91q131 -86 221 -86q94 0 142 86t69 232l117 868h-199l8 53l207 47q4 27 12 81.5t25.5 121t46.5 136t76 127t114.5 94t161.5 36.5q88 0 137.5 -29.5t51.5 -78.5q2 -29 -11.5 -53.5t-48.5 -45.5q-55 35 -110.5 60.5t-98.5 25.5q-49 0 -79.5 -23.5 t-51 -66.5t-33 -101t-22.5 -126l-23 -170h283l-16 -88h-279l-88 -618q-16 -109 -43 -230t-79 -223t-138 -169t-223 -67q-88 0 -137.5 30t-51.5 79z" />
<glyph unicode="g" horiz-adv-x="1017" d="M70 -352q0 27 30 66q31 40 97 57q23 -78 94 -122t158 -44q49 0 85.5 14t61.5 39t39 58.5t22 72.5q29 166 54.5 339t64.5 339h-8q-137 -250 -253 -366.5t-216 -116.5q-66 0 -111 65.5t-51 214.5q-1 18 -1 35q0 75 14 143q18 98 68 194.5t112.5 173.5t132.5 125t129 48 q57 0 118.5 -4t141.5 -21q20 29 32.5 42.5t30.5 13.5q10 0 28 -3t33 -9.5t27.5 -16.5t12.5 -22q0 -4 -1 -6.5t-1 -4.5q-33 -133 -59.5 -275t-50 -288.5t-45 -292t-42.5 -284.5q-10 -55 -49 -111.5t-96.5 -101.5t-129 -73t-149.5 -28q-84 0 -144.5 15.5t-100 38t-59 47 t-19.5 49.5zM301 330q4 -94 26.5 -137t65.5 -43t99.5 51t115 126.5t108.5 163t81 158.5l26 152q-20 20 -49 35.5t-58.5 24.5t-59.5 13.5t-50 4.5q-78 0 -137 -53.5t-97 -134.5t-56 -178q-16 -80 -16 -152q0 -16 1 -31z" />
<glyph unicode="h" horiz-adv-x="1064" d="M102 0q16 94 30.5 179t29.5 163q20 117 39.5 229.5t38 235.5t38 261t39.5 308q-43 8 -90 14.5t-90 14.5l6 45q27 8 62 17.5t70.5 16.5t71.5 11t65 4q41 1 55 -27q11 -21 11 -48q0 -7 -1 -15q-33 -262 -67.5 -471t-63.5 -363h10q41 59 94.5 130t115 132.5t131 103.5 t145.5 42q53 0 84.5 -36t36.5 -93q0 -61 -13.5 -155.5t-34 -198t-41 -208t-34.5 -188.5q53 4 97 20.5t95 45.5l29 -35q-20 -25 -52 -51.5t-69 -50t-75 -38.5t-70 -15q-72 0 -91.5 27.5t-19.5 74.5q0 45 18.5 136t40 193.5t39.5 198.5q17 86 17 137v11q-4 80 -58 80 q-35 0 -71.5 -23.5t-69.5 -52.5q-59 -57 -118.5 -133t-98.5 -137q-18 -29 -35.5 -62t-28.5 -55q-6 -10 -13 -50t-15 -89.5t-14.5 -100.5t-10.5 -86q-2 -18 -6 -24.5t-22 -10.5q-29 -8 -60 -14t-59 -14q-14 4 -17 14z" />
<glyph unicode="i" horiz-adv-x="591" d="M125 846q23 25 52.5 51.5t63 48t69.5 35.5t71 14q61 0 86 -33.5t25 -89.5q0 -18 -9.5 -74.5t-24 -133t-31.5 -163.5t-31.5 -166t-27 -141.5t-14.5 -89.5q49 4 98.5 20.5t102.5 45.5l25 -33q-20 -25 -51 -52.5t-66 -51t-71.5 -38.5t-69.5 -15q-68 0 -93.5 27.5t-25.5 74.5 q0 31 12 107.5t31.5 183t44 234.5t49.5 261q-41 -2 -87 -17t-99 -42zM340 1325q0 49 26.5 86t79.5 37q39 0 67 -27.5t28 -74.5q0 -53 -32 -86t-73 -33q-39 0 -67.5 27.5t-28.5 70.5z" />
<glyph unicode="j" horiz-adv-x="532" d="M-291 -362q4 29 32 50t89 36q16 -66 68.5 -100t99.5 -34q59 0 93 48.5t56 134.5q4 16 16.5 84.5t30 168t38 217t41 233.5t37 219.5t28.5 172.5q-45 -2 -90 -17t-96 -42l-31 37q23 25 51.5 51.5t61 48t68.5 35.5t75 14q66 0 89 -28.5t23 -75.5q0 -29 -10 -92.5t-28.5 -171 t-45 -262t-61.5 -361.5q-84 -506 -405 -506h-15q-66 2 -108.5 16.5t-67 35t-34 44t-5.5 44.5zM348 1325v6q0 43 28 79q30 38 79 38q53 0 80.5 -27.5t29.5 -74.5q-4 -53 -32.5 -86t-69.5 -33q-53 0 -83 27.5t-32 70.5z" />
<glyph unicode="k" horiz-adv-x="976" d="M115 0q51 346 106 685t98 691l-178 31l2 43q27 8 62 17.5t71.5 16.5t72.5 11t65 4q39 0 55 -19.5t16 -49.5q0 -23 -12 -109t-31.5 -208t-44 -265t-47.5 -277l6 -2q43 74 103.5 149t128 136t134 100t122.5 39q63 0 100 -27.5t39 -78.5q0 -23 -13.5 -51.5t-58.5 -51.5 q-20 37 -51 52.5t-61 15.5q-41 0 -79 -17.5t-74 -46t-68.5 -64.5t-65.5 -75q27 -78 76 -169t99 -172t95 -139t66 -69q41 14 74.5 35t66.5 47l29 -28q-72 -109 -135.5 -144t-100.5 -35q-31 0 -66.5 32t-78.5 97.5t-96.5 169t-120.5 248.5l-27 -33q-16 -20 -26.5 -34.5 t-18.5 -30.5t-15 -35.5t-16 -48.5l-7 -56t-11 -86t-10 -87t-6 -62q-2 -18 -6.5 -24.5t-22.5 -10.5l-123 -28q-12 4 -16 14z" />
<glyph unicode="l" horiz-adv-x="585" d="M174 84q0 31 6 68q4 27 19.5 117.5t36 213.5t43 263.5t42 267.5t35 225t19.5 137l-180 31l2 43q27 8 61.5 17.5t70.5 16.5t69.5 11t62.5 4q39 0 55 -19.5t16 -52.5q0 -18 -11 -100t-29.5 -200.5t-42 -262t-46 -284t-44 -266.5t-33.5 -210q98 6 200 64l25 -33 q-20 -25 -51 -51.5t-66 -50t-71.5 -38.5t-69.5 -15q-70 0 -94.5 28.5t-24.5 75.5z" />
<glyph unicode="m" horiz-adv-x="1650" d="M127 846q23 25 51.5 51.5t62 48t70.5 35.5t76 14q68 0 90.5 -28.5t22.5 -75.5q0 -59 -12.5 -147.5t-28.5 -174.5h6q31 51 76 123t101 137.5t122.5 112.5t140.5 47q53 0 80 -40t29 -97v-21q0 -46 -6 -104q-8 -72 -25 -158h6q31 51 76 124t101.5 139.5t123 113.5t140.5 47 q53 0 79.5 -40t28.5 -97v-24q0 -112 -32 -282q-36 -190 -79 -446q47 4 93.5 19.5t99.5 44.5l29 -31q-18 -25 -48 -52.5t-66 -51t-75 -38.5t-74 -15q-47 0 -71.5 14t-33.5 38.5t-8 56.5t7 67q14 88 32.5 178t34 173t24.5 153q7 57 7 97v17q-2 37 -12 59.5t-33 22.5 q-35 0 -74.5 -30.5t-68.5 -65.5q-70 -88 -131.5 -190.5t-106.5 -194.5q-4 -10 -13 -53t-19.5 -96.5t-17.5 -102.5t-9 -70q-4 -23 -7 -29t-24 -10q-29 -8 -57.5 -13t-56.5 -15q-16 4 -21 18l72 383q23 117 38 221q13 92 13 151v15q-2 37 -12.5 59.5t-32.5 22.5 q-37 0 -74 -30.5t-65 -65.5q-70 -88 -131.5 -190.5t-106.5 -194.5q-4 -10 -13 -53t-19.5 -96.5t-17.5 -102.5t-9 -70q-4 -23 -7.5 -29t-23.5 -10q-29 -8 -57.5 -13t-57.5 -15q-16 4 -20 18q25 125 45 235.5t38.5 214t34 205t27.5 209.5q-78 -2 -184 -59z" />
<glyph unicode="n" horiz-adv-x="1177" d="M127 846q23 25 51.5 51.5t62 48t70.5 35.5t76 14q68 0 90.5 -28.5t22.5 -75.5q0 -59 -12.5 -147.5t-28.5 -174.5h6q43 57 95 130t113.5 135.5t130 105.5t144.5 43q53 0 86 -37t35 -94v-20q0 -50 -8 -114q-10 -77 -28.5 -171t-42 -205t-44.5 -238q47 4 93 19.5t100 44.5 l28 -31q-18 -25 -47.5 -52.5t-65.5 -51t-75 -38.5t-74 -15q-47 0 -71.5 14t-33.5 38.5t-8 56.5t7 67q14 88 33.5 176t36 169t27.5 149q9 57 9 98v14q-2 37 -18.5 56.5t-38.5 19.5q-37 0 -73 -23.5t-68 -54.5q-63 -59 -119 -131t-96 -137q-20 -33 -36 -63t-28 -54 q-4 -10 -13 -53t-19.5 -96.5t-17.5 -102.5t-9 -70q-4 -23 -7.5 -29t-23.5 -10q-29 -8 -57.5 -13t-57.5 -15q-16 4 -20 18q25 125 45 235.5t38.5 214t34 205t27.5 209.5q-78 -2 -184 -59z" />
<glyph unicode="o" horiz-adv-x="1011" d="M135 358q0 145 46 263t123 201t176 128t208 45q76 0 133.5 -27.5t97 -76.5t60 -116.5t20.5 -147.5q0 -141 -42 -260t-114.5 -205t-173 -134t-216.5 -48q-145 0 -231.5 102t-86.5 276zM309 399q0 -72 12.5 -133t37 -106t64.5 -72t95 -27q80 0 138.5 51.5t97.5 130.5 t57 173t18 180q0 135 -52.5 224t-158.5 89q-68 0 -125 -43t-98 -114.5t-63.5 -163.5t-22.5 -189z" />
<glyph unicode="p" horiz-adv-x="1097" d="M86 840q20 25 53 52.5t71 51t77 38.5t73 15q49 0 78 -21q23 -16 23 -64q0 -13 -2 -29q-8 -84 -23.5 -185.5t-32.5 -187.5l9 -2q135 252 249.5 368.5t212.5 116.5q66 0 114 -64.5t52 -213.5q1 -18 1 -36q0 -28 -2 -57q-3 -47 -9 -87q-18 -98 -68.5 -195.5t-114 -175.5 t-133 -127t-128.5 -49q-53 0 -118 4t-142 20l-4 -4q-16 -117 -31 -237.5t-31 -225.5q-33 -20 -60.5 -30.5t-72.5 -20.5l-14 14l102 637q33 195 54.5 372t39.5 355q-53 -4 -99 -22.5t-97 -46.5zM360 168q45 -43 107.5 -60.5t107.5 -17.5q80 0 138.5 55.5t96.5 138.5t54 181 q15 87 15 165v19q-4 92 -27 135t-66 43t-100 -51t-113.5 -126t-106.5 -162t-79 -158z" />
<glyph unicode="q" horiz-adv-x="997" d="M127 264q-1 19 -1 37q0 74 13 141q18 98 68.5 194.5t113 173.5t132.5 125t129 48q57 0 120.5 -4t143.5 -21q23 33 36 45.5t31 10.5q12 0 28.5 -4t31 -11.5t23 -18.5t3.5 -26q-53 -211 -94 -466t-69 -527q-4 -23 -8.5 -69t-9.5 -105t-10 -126t-9 -126q-31 -16 -68 -26.5 t-72 -14.5l-18 14l6 56q25 233 52.5 458.5t68.5 444.5l-8 2q-141 -252 -256 -368.5t-215 -116.5q-66 0 -111 65.5t-51 214.5zM291 330q4 -94 26.5 -137t63.5 -43q43 0 100.5 51t115.5 126.5t108.5 163t80.5 158.5l27 152q-20 20 -49 35.5t-58.5 24.5t-59.5 13.5t-50 4.5 q-78 0 -137.5 -53.5t-97 -134.5t-55.5 -178q-16 -80 -16 -152q0 -16 1 -31z" />
<glyph unicode="r" horiz-adv-x="792" d="M121 846q23 25 51.5 51.5t61 48t69.5 35.5t76 14q45 0 69.5 -13t35 -36.5t9.5 -56.5t-6 -72q-2 -14 -5 -41.5t-8 -58.5t-9 -60.5t-8 -48.5l4 -2q12 23 25.5 50.5t35.5 70.5q43 82 79 134t65.5 82t54 41t45.5 11q53 0 80.5 -23.5t27.5 -64.5v-6q0 -27 -17 -55 q-19 -32 -66 -68q-31 43 -82 43q-23 0 -45.5 -12t-47.5 -47q-35 -49 -68.5 -113.5t-63 -133.5t-52 -138.5t-33.5 -128.5q-29 -135 -34 -195q-4 -27 -12.5 -33t-37.5 -12t-47 -10t-47 -12q-16 4 -20 18q20 106 38.5 203.5t36 199t35 214t35.5 247.5q-80 -2 -190 -59z" />
<glyph unicode="s" horiz-adv-x="808" d="M102 104q0 51 31 73t84 32q33 -78 92.5 -107.5t136.5 -29.5q74 0 124.5 35.5t50.5 105.5q0 59 -44.5 103t-136.5 104q-53 35 -96 63.5t-73.5 57t-47 60.5t-18.5 75q0 68 32.5 126t87 101t125 66.5t146.5 23.5q33 0 68.5 -6t67.5 -21.5t53.5 -40t25.5 -61.5 q0 -53 -30.5 -72.5t-84.5 -27.5q-31 76 -82 105.5t-102 29.5q-68 0 -119 -31.5t-55 -89.5q2 -35 14.5 -61.5t36 -51t56 -49t77.5 -53.5q100 -66 169 -128t73 -136q0 -74 -29.5 -133.5t-85 -102.5t-132.5 -66.5t-171 -23.5q-39 0 -81 6.5t-76.5 21.5t-59.5 41t-27 62z" />
<glyph unicode="t" horiz-adv-x="702" d="M137 883q2 18 4 28.5t4 26.5l207 51l111 238h78l-47 -256h229q-4 -20 -8 -43t-8 -45h-226q-35 -199 -69.5 -394.5t-57.5 -392.5q78 0 148.5 28t130.5 62l31 -39q-33 -35 -74 -65.5t-86 -54t-93.5 -38t-97.5 -14.5q-72 0 -98.5 31t-26.5 84q0 29 7 66q29 193 61.5 368.5 t69.5 358.5h-189z" />
<glyph unicode="u" horiz-adv-x="1179" d="M129 838q18 25 48 52.5t66 51t74.5 38.5t73.5 15q47 0 71.5 -15t34 -40t8.5 -56.5t-7 -64.5q-16 -88 -35 -176t-35 -169q-16 -80 -28 -148q-10 -58 -9 -99v-14q2 -37 18.5 -56.5t39.5 -19.5q43 0 94 38t100 91t91 113.5t71 103.5q20 33 35.5 62.5t27.5 54.5q4 8 13.5 52 t19.5 97.5t17.5 102.5t9.5 70q4 23 7 28.5t23 10.5q29 8 57.5 13t57.5 15q16 -4 21 -18q-25 -127 -45.5 -236.5t-39 -213t-33.5 -205t-28 -210.5q78 2 185 60l36 -37q-23 -25 -51 -51.5t-62 -48t-71 -35.5t-76 -14q-68 0 -90 28.5t-22 75.5q0 59 12 147t29 175h-7 q-43 -59 -95 -131t-113.5 -134.5t-130 -105.5t-144.5 -43q-53 0 -86 37t-35 94v19q1 51 9 115q10 77 28.5 171t41 204.5t44.5 237.5q-47 -4 -93 -19t-99 -44z" />
<glyph unicode="v" horiz-adv-x="968" d="M88 815q18 27 43 57.5t53.5 55t61.5 41t65 16.5q66 0 91.5 -42t37.5 -103q8 -41 18.5 -121t17.5 -174t13.5 -192.5t8.5 -178.5h12q74 80 131 170t96 173t58.5 149.5t19.5 103.5q-2 47 -27.5 65.5t-50.5 24.5q2 45 36 88t85 43q53 0 90 -34.5t39 -106.5q1 -9 1 -19 q0 -89 -50 -196q-55 -119 -138 -241t-178.5 -232.5t-170.5 -186.5l-80 17q-2 104 -10.5 228t-21.5 244t-30.5 224.5t-38.5 169.5q-41 -14 -74.5 -32.5t-76.5 -49.5z" />
<glyph unicode="w" horiz-adv-x="1441" d="M86 817q18 27 43 56.5t53.5 54t61 41t67.5 16.5q63 0 89 -42t38 -103q8 -43 16.5 -123t13.5 -174q5 -93 6 -191v-63q0 -61 -1 -113h14q74 82 126.5 165t87 154.5t54 128t25.5 83.5q-8 47 -18 93t-27 87q-10 35 -2 47q14 23 36 31t46 10q5 1 9 1q41 0 65 -50 q18 -39 32.5 -120t25.5 -184.5t17.5 -220t8.5 -225.5h12q74 82 128 171t91 171t54.5 148.5t17.5 103.5q-2 45 -27.5 64.5t-48.5 25.5q0 23 9.5 46.5t25.5 42t38.5 30.5t49.5 12q53 0 89 -34.5t38 -106.5q1 -10 1 -21q0 -90 -47 -197q-52 -120 -133 -240t-175.5 -229.5 t-171.5 -187.5l-80 17q-4 109 -11.5 241t-23.5 265h-6q-41 -78 -89 -153t-98.5 -142.5t-98.5 -126t-91 -101.5l-80 17q-2 104 -7 228t-13.5 244t-21.5 224.5t-34 169.5q-43 -14 -74.5 -32.5t-74.5 -49.5z" />
<glyph unicode="x" horiz-adv-x="1052" d="M96 39q0 10 6 14q43 43 96.5 98.5t107.5 114t104.5 113.5t85.5 94q-37 102 -77 200.5t-85 174.5q-74 -35 -154 -105l-37 39q14 31 40 66t57.5 65.5t67.5 50t73 19.5q55 0 87 -43t52 -98l82 -240q66 86 131.5 176t147.5 205q12 16 18 16t27 -12q20 -14 31.5 -21.5 t18.5 -12.5t15 -11t21 -16q4 -6 4 -15.5t-4 -13.5q-41 -41 -91.5 -92t-101.5 -105.5t-99 -106.5t-85 -93q35 -104 79 -211t91 -185q37 16 76 46t77 65l43 -35q-16 -31 -41.5 -66.5t-58.5 -66.5t-68.5 -51.5t-72.5 -20.5q-55 0 -86 40t-51 96q-23 55 -46.5 122.5t-48.5 139.5 q-72 -92 -141.5 -188.5t-155.5 -219.5q-10 -16 -17 -15t-28 11q-23 14 -33 22.5t-17 13.5t-13 11t-21 17q-6 4 -6 14z" />
<glyph unicode="y" horiz-adv-x="1067" d="M102 836q18 25 48 52t66 51t73 39t69 15q47 0 73 -13t37 -35.5t10 -54.5t-7 -71q-16 -88 -34.5 -177t-35 -170t-27.5 -148q-10 -54 -10 -93q0 -11 1 -20q2 -37 17 -57.5t38 -20.5q37 0 71.5 22.5t67.5 53.5q27 25 57.5 59.5t59.5 71.5t54.5 75t45.5 70q23 31 38 60.5 t26 56.5q6 8 16 52t19.5 96.5t16.5 101.5t9 68q4 23 8 28.5t27 12.5q29 6 55.5 11t55.5 15q6 -2 12 -6t8 -12l-86 -412q-16 -80 -41 -190.5t-61.5 -227t-87 -231.5t-115 -206t-145 -146.5t-181.5 -55.5q-55 0 -91 12.5t-56.5 30t-28.5 36t-8 32.5q0 35 17.5 59.5t72.5 53.5 q14 -33 52 -59.5t83 -26.5q74 0 132.5 52t102.5 123.5t74.5 150.5t49.5 134q27 78 51 169t43 171l-8 2q-37 -61 -94.5 -138t-125 -146.5t-143 -116.5t-151.5 -47q-53 0 -88 35.5t-35 93.5q0 111 38.5 300t86.5 445q-90 -6 -193 -63z" />
<glyph unicode="z" horiz-adv-x="950" d="M115 39q33 43 84 107.5t112 140.5q57 70 119 145.5t120 149t109.5 141.5t88.5 121l-431 -4l-104 -158l-47 18l65 244q12 35 35 42q15 4 44 4q17 0 38 -1q119 -6 188.5 -9t129.5 -3q59 0 118.5 3t147.5 9l18 -47q-33 -45 -89 -113.5t-118 -146.5q-57 -70 -117.5 -144.5 t-117.5 -147.5t-107.5 -140.5t-87.5 -120.5l469 4l105 166l49 -18l-68 -256q-10 -35 -36 -40q-15 -3 -37 -3q-17 0 -39 2q-92 8 -182.5 13t-176.5 5q-66 0 -132 -2t-136 -8z" />
<glyph unicode="{" horiz-adv-x="579" d="M158 541l6 53q80 35 114.5 108.5t47.5 169.5l36 312q20 117 82 173t158 56h113l-8 -70h-66q-78 0 -106.5 -45t-38.5 -129l-39 -327q-12 -98 -50 -167t-116 -97v-11q63 -29 84.5 -69.5t21.5 -100.5q0 -45 -6 -96l-47 -379q-4 -31 -5 -63.5t7 -58t30.5 -41t67.5 -11.5h66 l-10 -70h-111q-35 0 -69.5 12.5t-62.5 39t-43 70.5t-9 108l43 356q4 29 6 51.5t2 44.5q0 57 -21.5 100.5t-76.5 80.5z" />
<glyph unicode="|" horiz-adv-x="536" d="M225 -389v1835h84v-1835h-84z" />
<glyph unicode="}" horiz-adv-x="612" d="M18 -322q2 18 5.5 35t5.5 35h65q78 0 105.5 47t38.5 127q10 92 23 188.5t24 190.5q12 98 44.5 164.5t123.5 101.5v17q-41 10 -63.5 37.5t-33 63.5t-10.5 77t4 80l39 327q8 74 -9.5 124t-88.5 50h-66l8 70h111q45 0 82 -11t62.5 -38t37 -71t2.5 -109l-36 -312 q-4 -39 -6.5 -80.5t6 -80.5t29 -70t61.5 -47l-7 -51q-45 -25 -73.5 -53.5t-46 -62.5t-26.5 -74t-15 -89l-43 -356q-8 -72 -34 -116t-59.5 -69.5t-72.5 -35t-74 -9.5h-113z" />
<glyph unicode="~" d="M152 406q10 31 31.5 67.5t56 69t84 55.5t112.5 23q47 0 94.5 -15.5t93.5 -33t90 -33t85 -15.5q53 0 97 16.5t93 73.5l49 -24q-16 -37 -38.5 -72t-53.5 -61.5t-71.5 -43t-96.5 -16.5q-61 0 -108 14.5t-87 32t-79 31.5t-84 14q-53 0 -112.5 -20t-102.5 -82z" />
<glyph unicode="&#xa1;" horiz-adv-x="528" d="M113 -356.5q0 10.5 4 16.5l186 952h57l-43 -954q0 -18 -6 -41t-19 -41t-34.5 -31.5t-54.5 -13.5q-51 0 -70.5 28.5t-19.5 63.5v20.5zM262 877q0 53 37 91t84 38q39 0 65.5 -28t26.5 -69q0 -53 -37 -90t-84 -37q-41 0 -66.5 27t-25.5 68z" />
<glyph unicode="&#xa2;" d="M289 371q-6 154 68.5 285.5t203.5 226.5q59 41 113 61l26 232l62 -2l-25 -209q12 2 24.5 3t24.5 1q55 0 95.5 -13.5t65 -33t35.5 -43t9 -41.5q-2 -29 -31.5 -53.5t-89.5 -41.5q-14 68 -48 94.5t-79 26.5h-18l-86 -725q53 2 127 37t139 103l35 -33q-53 -66 -139 -122 t-172 -77l-31 -260l-59 2l28 252h-4q-139 0 -203.5 89t-70.5 241zM444 395q2 -102 36 -166.5t100 -83.5l82 705q-18 -8 -36 -21.5t-36 -29.5q-31 -29 -58.5 -75t-47 -101.5t-31 -115t-9.5 -112.5z" />
<glyph unicode="&#xa3;" d="M74 82l80 29q49 18 87 79.5t66.5 143.5t48 171t31.5 163h-176v71h190q20 143 60.5 267t107 215.5t161.5 143.5t224 52q123 0 186.5 -43t63.5 -96q0 -45 -32.5 -83t-75.5 -48q-12 68 -64.5 117t-132.5 49q-96 0 -155.5 -35t-96.5 -105.5t-59.5 -178t-44.5 -255.5h389v-71 h-402q-23 -131 -57.5 -272.5t-107.5 -266.5q84 -2 194.5 1t214.5 7q47 2 78 7.5t53.5 19.5t41 39.5t40.5 66.5l55 101l48 -15l-70 -336l-23 -20q-70 2 -114.5 3t-86.5 2t-91.5 1h-126.5h-115t-130.5 -1l-133 -2t-123.5 -3q0 16 -1 41t-1 41z" />
<glyph unicode="&#xa4;" d="M172 283l113 116q-37 53 -53.5 108.5t-16.5 115.5q0 53 16.5 106t51.5 100q-23 23 -55.5 58t-55.5 59l66 70l108 -113q53 33 104.5 50.5t104.5 17.5q55 0 106.5 -13.5t98.5 -46.5l106 105l64 -66l-103 -110q31 -51 48.5 -106.5t17.5 -110.5q0 -59 -17.5 -113.5 t-50.5 -106.5l107 -114l-64 -68l-110 119q-103 -72 -203 -72q-57 0 -107.5 17.5t-103.5 52.5l-113 -119zM313 623q0 -53 19.5 -99.5t52.5 -81t77 -55t93 -20.5t93 20.5t77 55t52.5 80.5t19.5 100q0 51 -19.5 96t-52.5 78.5t-77 53t-93 19.5t-93 -19.5t-77 -52t-52.5 -78.5 t-19.5 -97z" />
<glyph unicode="&#xa5;" d="M162 408l12 98h918l-13 -98h-391l-24 -203q-4 -53 13 -76t66 -35l88 -22l-8 -72h-501l8 61l82 27q29 8 47 18.5t29.5 23.5t17.5 32.5t10 48.5l25 197h-379zM170 1309l10 67h269q-4 -47 6 -98t30 -104l183 -457h16l266 454q18 35 13 67t-62 48l-61 17l10 71q100 0 198.5 1 t198.5 1l-12 -71q-35 -16 -63.5 -39t-57.5 -54.5t-59.5 -74.5t-69.5 -101l-201 -315h334l-14 -100h-918l15 100h309l-188 469q-10 23 -17.5 37t-16.5 24.5t-22.5 18.5t-36.5 16z" />
<glyph unicode="&#xa6;" horiz-adv-x="536" d="M229 -389v854h72v-854h-72zM229 653v793h72v-793h-72z" />
<glyph unicode="&#xa7;" horiz-adv-x="970" d="M170 -154q0 41 29.5 73t62.5 46q61 -59 111.5 -87t81.5 -28q29 0 47 14.5t29.5 35t16.5 44t5 44.5q2 88 -36 172t-93 166q-31 47 -61.5 100t-55 111.5t-40 123t-15.5 132.5q0 98 37 217.5t107.5 222t172 172.5t230.5 70q86 0 128 -32t42 -75q0 -41 -31 -72.5t-61 -46.5 q-53 53 -105.5 85t-83.5 32q-29 0 -50.5 -14.5t-34.5 -36t-19 -47t-6 -47.5q0 -80 38.5 -163t92.5 -161q33 -47 65.5 -99.5t58 -110.5t41 -122.5t15.5 -136.5q0 -63 -16.5 -139t-49 -153t-80 -148.5t-109 -127t-135 -88t-159.5 -32.5q-84 0 -127 31.5t-43 74.5zM373 856 q0 -63 14 -117.5t38 -102.5t51.5 -91t55.5 -84q51 -72 90.5 -141.5t39.5 -151.5q0 -12 -1.5 -45t-5.5 -76q53 68 80 150t27 174q0 57 -11.5 105t-31 90t-44 78t-50.5 73q-25 37 -50.5 77t-46 86t-33 98t-12.5 116v27.5t4 49.5q-59 -72 -86.5 -156.5t-27.5 -158.5z" />
<glyph unicode="&#xa8;" horiz-adv-x="1093" d="M379 1268q6 41 35.5 68.5t70.5 27.5q37 0 60.5 -27.5t17.5 -68.5q-4 -41 -33.5 -70t-70.5 -29q-35 0 -59.5 29t-20.5 70zM760 1268q4 41 33.5 68.5t70.5 27.5q39 0 62.5 -27.5t17.5 -68.5q-4 -41 -34.5 -70t-67.5 -29q-41 0 -63.5 29t-18.5 70z" />
<glyph unicode="&#xa9;" horiz-adv-x="1693" d="M115 709q0 158 55 296t153.5 241.5t232.5 162.5t294 59q158 0 293 -59t233.5 -162.5t153.5 -242t55 -295.5q0 -158 -55 -297.5t-153.5 -241.5t-233.5 -161.5t-293 -59.5q-170 0 -306 59.5t-231.5 161.5t-146.5 241.5t-51 297.5zM201 709q0 -143 47 -267.5t132 -216.5 t205 -145t265 -53q143 0 263 53t205 145t132 216t47 268q0 143 -48 267t-134 216t-205 145.5t-260 53.5q-143 0 -263 -53.5t-206 -145.5t-133 -216t-47 -267zM444 680q0 80 21.5 167t69 158.5t122 118.5t183.5 47q59 0 129.5 -13t142.5 -54l6 -201l-51 -10l-23 72 q-25 70 -86 95t-127 25q-80 0 -131 -36.5t-80.5 -93t-41 -126t-11.5 -137.5q0 -63 10.5 -134t41 -129t89 -97t156.5 -39q25 0 91.5 9t138.5 32q4 -18 11 -33.5t11 -34.5q-72 -35 -146.5 -49t-123.5 -14q-190 0 -296 124t-106 353z" />
<glyph unicode="&#xaa;" horiz-adv-x="753" d="M129 770q0 27 5 50.5t9 45.5q12 63 46 126t78 114t92.5 83t89.5 32t81.5 -2t94.5 -13q16 18 24 25.5t23 7.5q16 0 47 -9t33 -30q0 -8 -2 -10q-18 -55 -35 -124t-28 -140.5t-18 -140t-10 -126.5q31 2 61 12.5t66 30.5l29 -32q-14 -16 -37.5 -36t-51.5 -36t-56.5 -27.5 t-53.5 -11.5q-41 0 -60 15.5t-19 68.5q0 35 4 89t14 112q-84 -135 -162 -208t-143 -73q-51 0 -86 48t-35 159zM260 811q0 -66 13.5 -94.5t39.5 -28.5q27 0 64 32t76 80t72.5 102t54.5 99l14 95q-25 23 -65.5 33t-69.5 10q-49 0 -86 -32t-62.5 -80t-38 -105.5t-12.5 -110.5z " />
<glyph unicode="&#xab;" horiz-adv-x="849" d="M166 395l12 88l332 353q10 -6 19.5 -15.5t19.5 -15.5l-258 -367q43 -92 85 -181t83 -181q-10 -10 -23.5 -17.5t-23.5 -15.5zM444 395l13 88l329 353l41 -31l-258 -367q41 -92 84 -181t84 -181l-47 -33q-61 86 -123.5 176t-122.5 176z" />
<glyph unicode="&#xac;" d="M156 508l14 108h860l-63 -510h-105l49 402h-755z" />
<glyph unicode="&#xad;" horiz-adv-x="657" d="M156 453q4 35 8 64.5t8 64.5h459q-4 -35 -8.5 -65t-8.5 -64h-458z" />
<glyph unicode="&#xae;" horiz-adv-x="1097" d="M141 963q0 102 35 191t98.5 155.5t149.5 104.5t188 38t189.5 -38t151 -104.5t99 -155.5t35.5 -191q0 -100 -35.5 -188.5t-99 -155t-151 -104.5t-189.5 -38q-109 0 -195.5 38t-148 104.5t-94.5 154.5t-33 189zM199 963q0 -90 28.5 -168t81.5 -136.5t130 -92.5t173 -34 q94 0 171 34t131.5 92.5t83 136t28.5 168.5q0 90 -29.5 168.5t-84 137t-130 92.5t-170.5 34q-92 0 -167.5 -34t-131 -92.5t-85 -137t-29.5 -168.5zM385 700v41l31 11q23 8 30 17t7 28v368q0 29 -6.5 41.5t-34.5 18.5l-25 6l6 41q23 -2 50.5 -2h76.5l109 2q82 0 134 -35 t52 -121q0 -53 -30.5 -97t-90.5 -65l70 -147q12 -27 24.5 -37t38.5 -14l43 -4v-43l-120 -23l-15 10l-112 244q-18 0 -42 1t-49 5v-143q0 -25 10.5 -34t24.5 -13l37 -8v-48h-219zM532 1008q16 -4 32 -4h26q43 0 71.5 9t45 24.5t22.5 34t6 36.5q0 59 -40 82.5t-105 23.5 q-31 0 -58 -6v-200z" />
<glyph unicode="&#xaf;" horiz-adv-x="1093" d="M348 1219l14 114h605l-15 -114h-604z" />
<glyph unicode="&#xb0;" horiz-adv-x="827" d="M170 1202q0 53 19.5 99.5t55.5 81t84 54t105 19.5q125 0 196.5 -73.5t71.5 -180.5q0 -51 -20 -97t-57 -81t-86.5 -55.5t-104.5 -20.5q-59 0 -108.5 20.5t-84 55.5t-53 81t-18.5 97zM250 1202q0 -76 47 -129t137 -53q92 0 138 53t46 129q0 78 -46 130t-138 52t-138 -52 t-46 -130z" />
<glyph unicode="&#xb1;" d="M94 2l12 107h865l-13 -107h-864zM158 535l14 110h379l49 389h107l-50 -389h375l-14 -110h-375q-10 -86 -20.5 -174.5t-20.5 -174.5h-106l41 349h-379z" />
<glyph unicode="&#xb2;" horiz-adv-x="708" d="M90 825q133 88 227.5 163t153.5 142.5t87 129t28 122.5q0 76 -47 110t-119 34q-41 0 -100.5 -18.5t-129.5 -63.5l-43 55q72 53 150 85t160 32q37 0 83 -9.5t85 -34t65.5 -66.5t26.5 -105q0 -76 -38 -151.5t-100.5 -146.5t-143.5 -136.5t-165 -122.5q61 2 122 3t122 5 q45 2 65.5 14.5t47.5 55.5l49 75l57 -14l-59 -215l-23 -14q-45 0 -77.5 1t-62.5 2t-58.5 2t-65.5 1h-52.5t-57 -1t-75.5 -2t-106 -1z" />
<glyph unicode="&#xb3;" horiz-adv-x="708" d="M96 827q0 23 19.5 51.5t74.5 39.5q37 -96 150 -97q100 0 169 56.5t69 152.5q0 66 -50.5 102.5t-142.5 36.5q-18 0 -39.5 -2t-44.5 -6l-27 72q49 12 102.5 33.5t97.5 50.5t74 62.5t30 70.5q0 31 -27 53.5t-88 22.5q-66 0 -139.5 -31t-133.5 -72l-43 56q72 63 160 100 t178 37q43 0 83 -8.5t71 -24.5t49.5 -42.5t18.5 -65.5q0 -66 -56.5 -126.5t-134.5 -97.5q76 -16 131 -75.5t55 -135.5q0 -61 -28.5 -117.5t-82.5 -98.5t-131 -66.5t-171 -24.5q-59 0 -96 9.5t-58.5 23.5t-30 30.5t-8.5 30.5z" />
<glyph unicode="&#xb4;" horiz-adv-x="976" d="M526 1153l279 354q51 -53 104 -98q-80 -74 -163.5 -154.5t-161.5 -154.5z" />
<glyph unicode="&#xb5;" horiz-adv-x="1128" d="M115 838q18 25 46.5 52.5t63.5 51t74 38.5t76 15q59 0 85.5 -23.5t26.5 -68.5q0 -27 -8 -80t-21.5 -118.5t-27.5 -139t-27.5 -141.5t-21.5 -125t-8 -90q0 -41 15 -62.5t38 -21.5q45 0 93 32.5t94 83t87 111t74 113.5q29 47 48.5 84t27.5 51q4 10 14 54t19.5 97.5 t17.5 103t10 69.5q2 23 6.5 27.5t24.5 9.5q29 8 57.5 13t57.5 15q16 -4 20 -18q-25 -127 -45 -236.5t-38.5 -213t-34 -204t-29.5 -211.5q88 4 186 58l35 -35q-23 -25 -52.5 -52.5t-63.5 -49t-70.5 -36t-73.5 -14.5q-70 0 -91.5 31t-21.5 78q0 18 3 55t9.5 82t13.5 93.5 t17 89.5l-10 2q-10 -14 -22.5 -36t-24.5 -40q-35 -55 -77 -116.5t-91 -112t-103.5 -84t-113.5 -33.5q-23 0 -43.5 4t-48.5 16q-18 -121 -19 -227q0 -123 37 -234q-29 -25 -59.5 -35t-67.5 -14q-4 2 -10 6q-12 4 -16 9q-4 29 -6.5 56t-2.5 56q0 57 5.5 112.5t11.5 100.5 l69 418q16 94 33 194.5t31 186.5t23.5 149.5t13.5 85.5q-35 -2 -85 -18t-104 -45z" />
<glyph unicode="&#xb6;" horiz-adv-x="1232" d="M72 -109q0 20 4 42t18.5 40.5t41 32.5t69.5 21q4 -113 52 -170.5t134 -57.5q74 0 124 49.5t84 146.5t56.5 244.5t40.5 344.5q-80 0 -153.5 24.5t-129 73.5t-89 122t-33.5 167t31.5 176t95 142.5t159 94t222.5 33.5q78 -2 174 -4t192 -2h95l-7 -80l-69 -10 q-37 -6 -62.5 -24.5t-43 -56.5t-28 -100.5t-18.5 -156.5q-12 -143 -24.5 -294.5t-32 -292t-51 -260.5t-80.5 -199q-72 -115 -186.5 -179.5t-268.5 -64.5q-96 0 -156.5 20.5t-96.5 50t-50 64.5t-14 63zM487 -231l2 -11q139 41 216 122t120 190q18 47 32.5 114.5t27 146.5 t21.5 164t18 164q4 31 9 90.5t11 131t12.5 146.5t11.5 137.5t8 102.5t3 42h-133q-8 -86 -19.5 -216t-23.5 -266.5t-23.5 -259.5t-17.5 -192q-16 -127 -40 -226.5t-56.5 -173t-76.5 -125t-102 -81.5z" />
<glyph unicode="&#xb7;" horiz-adv-x="411" d="M164 551q0 51 36 87t83 36q41 0 66.5 -26.5t25.5 -67.5q0 -53 -37 -91t-84 -38q-41 0 -65.5 28.5t-24.5 71.5z" />
<glyph unicode="&#xb8;" horiz-adv-x="993" d="M338 -514l4 59q41 4 85 13.5t80 26t59.5 40t23.5 53.5q0 29 -18.5 46.5t-44 26.5t-55.5 13.5t-54 6.5l-15 32q55 66 107.5 129.5t107.5 126.5l46 -30l-150 -179q84 -4 143.5 -39.5t59.5 -107.5q0 -47 -29 -86t-79 -67.5t-119.5 -46t-151.5 -17.5z" />
<glyph unicode="&#xb9;" horiz-adv-x="708" d="M197 756l4 63l100 21q41 8 56.5 32.5t21.5 53.5l67 510q4 29 -3 45t-50 20l-119 10l11 64l278 33l25 -35l-94 -672q-4 -31 9 -44t42 -17l94 -17l-8 -67q-61 2 -110.5 3t-108.5 1h-113t-102 -4z" />
<glyph unicode="&#xba;" horiz-adv-x="698" d="M127 811q0 96 31.5 173t86 131t124 84t145.5 30q106 0 163.5 -67.5t57.5 -178.5q0 -92 -29.5 -170t-81 -134t-121 -88t-151.5 -32q-102 0 -163.5 69.5t-61.5 182.5zM266 838q0 -88 31 -147.5t100 -59.5q53 0 91 31.5t62.5 81t37 107.5t12.5 112q0 86 -33.5 140t-99.5 54 q-45 0 -82 -27.5t-63.5 -72.5t-41 -102.5t-14.5 -116.5z" />
<glyph unicode="&#xbb;" horiz-adv-x="849" d="M131 74l260 364l-170 367q12 8 23.5 16t23.5 13q63 -86 125 -175.5t121 -177.5l-12 -88q-84 -88 -163 -175t-165 -175q-10 8 -21.5 15.5t-21.5 15.5zM410 76l258 362l-168 367q12 8 23.5 16t23.5 13q61 -86 123.5 -175.5t122.5 -177.5l-13 -88l-327 -350 q-10 10 -21.5 16.5t-21.5 16.5z" />
<glyph unicode="&#xbc;" horiz-adv-x="1720" d="M252 573l4 64l100 20q41 8 56.5 33t21.5 53l68 510q4 29 -3 45.5t-50 20.5l-119 10l10 64l278 32l25 -34l-94 -672q-4 -31 9 -44t42 -18l94 -16l-8 -68q-61 2 -110.5 3.5t-108.5 1.5h-113t-102 -5zM520 -80l727 1555h78l-725 -1555h-80zM985 291l485 547l70 18l31 -20 l-68 -521h144l-11 -82h-143l-12 -94q-4 -31 8 -44t41 -17l69 -12l-6 -68q-35 0 -58.5 1t-42.5 1t-40.5 1t-50.5 1t-62.5 -1t-111.5 -1l2 63l61 13q43 10 58.5 31.5t19.5 52.5l10 73h-360zM1122 315h264l54 387z" />
<glyph unicode="&#xbd;" horiz-adv-x="1720" d="M211 573l4 64l100 20q41 8 56.5 33t21.5 53l68 510q4 29 -3 45.5t-50 20.5l-119 10l10 64l279 32l24 -34l-94 -672q-4 -31 9 -44t42 -18l94 -16l-8 -68q-61 2 -110.5 3.5t-108.5 1.5h-113t-102 -5zM475 -80l727 1555h78l-725 -1555h-80zM1049 70q133 88 227 162.5 t153.5 142t87 129t27.5 123.5q0 76 -47 109.5t-119 33.5q-41 0 -100 -18.5t-129 -63.5l-43 55q72 53 149.5 85t159.5 32q37 0 83 -9t85 -33.5t65.5 -66.5t26.5 -106q0 -76 -38 -151.5t-100 -146.5t-143 -136.5t-165 -122.5q61 2 121.5 3t122.5 5q45 2 65.5 14.5t46.5 55.5 l49 76l58 -15l-60 -215l-22 -14q-45 0 -78 1t-62.5 2t-58.5 2t-65 1h-52.5t-57.5 -1t-76 -2t-105 -1z" />
<glyph unicode="&#xbe;" horiz-adv-x="1720" d="M184 645q0 23 19.5 51.5t75.5 38.5q37 -96 149 -96q100 0 169 56.5t69 152.5q0 66 -50.5 102.5t-142.5 36.5q-18 0 -39.5 -2t-44.5 -6l-27 72q49 12 102.5 33.5t97.5 50t74 62.5t30 71q0 31 -27 53t-88 22q-66 0 -139.5 -30.5t-132.5 -71.5l-43 55q72 63 159.5 100.5 t177.5 37.5q43 0 83 -8.5t71 -25t49.5 -43t18.5 -65.5q0 -66 -56.5 -126t-134.5 -97q76 -16 131.5 -75.5t55.5 -135.5q0 -61 -29 -117.5t-83 -98.5t-131 -66.5t-171 -24.5q-59 0 -96 9t-58.5 23.5t-30 31t-8.5 30.5zM575 -80l728 1555h77l-725 -1555h-80zM1051 291l485 547 l70 18l30 -20l-67 -521h143l-10 -82h-143l-13 -94q-4 -31 8.5 -44t40.5 -17l70 -12l-6 -68q-35 0 -58.5 1t-43 1t-41 1t-50.5 1t-62.5 -1t-111.5 -1l2 63l62 13q43 10 58.5 31.5t19.5 52.5l10 73h-361zM1188 315h264l53 387z" />
<glyph unicode="&#xbf;" horiz-adv-x="872" d="M51 -254q0 45 21.5 87t57.5 82t81 80t92 79q45 39 89 76.5t78 76.5t54.5 79t20.5 81q0 37 -23.5 88t-52.5 86l47 51q78 -41 125 -109.5t47 -142.5q0 -43 -24.5 -89t-63.5 -92t-87 -92t-95 -89q-39 -35 -76 -69.5t-66.5 -67.5t-47 -62.5t-17.5 -54.5q0 -49 41 -83t106 -34 q66 0 149 42t173 141q29 -16 51.5 -43t22.5 -68q0 -88 -91.5 -134t-250.5 -46q-170 0 -265.5 58t-95.5 169zM481 877q0 53 38 91t87 38q39 0 64.5 -28t25.5 -69q0 -53 -37 -90t-84 -37q-41 0 -67.5 27t-26.5 68z" />
<glyph unicode="&#xc0;" horiz-adv-x="1347" d="M23 0l8 76l65 16q47 12 80 45t62 94l489 1006q23 45 43.5 91t40.5 93l98 19l4 -4q66 -299 135.5 -601.5t137.5 -601.5q14 -59 35.5 -97t74.5 -50l43 -10l-8 -76h-479l10 70l92 26q10 2 24.5 9.5t26 20.5t17.5 33.5t0 49.5l-53 237h-516l-91 -204q-10 -23 -15 -41.5 t-5 -34.5q0 -35 24.5 -50.5t67.5 -25.5l72 -16l-10 -74h-473zM494 532h456l-63 297l-80 377h-8l-168 -375zM561 1679q23 33 46.5 66t45.5 65l310 -249l-50 -68q-90 47 -175 93t-177 93z" />
<glyph unicode="&#xc1;" horiz-adv-x="1347" d="M23 0l8 76l65 16q47 12 80 45t62 94l489 1006q23 45 43.5 91t40.5 93l98 19l4 -4q66 -299 135.5 -601.5t137.5 -601.5q14 -59 35.5 -97t74.5 -50l43 -10l-8 -76h-479l10 70l92 26q10 2 24.5 9.5t26 20.5t17.5 33.5t0 49.5l-53 237h-516l-91 -204q-10 -23 -15 -41.5 t-5 -34.5q0 -35 24.5 -50.5t67.5 -25.5l72 -16l-10 -74h-473zM494 532h456l-63 297l-80 377h-8l-168 -375zM758 1561l362 249q16 -35 31.5 -65.5t32.5 -65.5q-100 -47 -195.5 -93t-193.5 -93z" />
<glyph unicode="&#xc2;" horiz-adv-x="1347" d="M23 0l8 76l65 16q47 12 80 45t62 94l489 1006q23 45 43.5 91t40.5 93l98 19l4 -4q66 -299 135.5 -601.5t137.5 -601.5q14 -59 35.5 -97t74.5 -50l43 -10l-8 -76h-479l10 70l92 26q10 2 24.5 9.5t26 20.5t17.5 33.5t0 49.5l-53 237h-516l-91 -204q-10 -23 -15 -41.5 t-5 -34.5q0 -35 24.5 -50.5t67.5 -25.5l72 -16l-10 -74h-473zM481 1526q86 78 174 155.5t174 155.5h89q70 -74 144.5 -153.5t143.5 -155.5l-45 -49l-303 227l-346 -225q-6 10 -15.5 22.5t-15.5 22.5zM494 532h456l-63 297l-80 377h-8l-168 -375z" />
<glyph unicode="&#xc3;" horiz-adv-x="1347" d="M23 0l8 76l65 16q47 12 80 45t62 94l489 1006q23 45 43.5 91t40.5 93l98 19l4 -4q66 -299 135.5 -601.5t137.5 -601.5q14 -59 35.5 -97t74.5 -50l43 -10l-8 -76h-479l10 70l92 26q10 2 24.5 9.5t26 20.5t17.5 33.5t0 49.5l-53 237h-516l-91 -204q-10 -23 -15 -41.5 t-5 -34.5q0 -35 24.5 -50.5t67.5 -25.5l72 -16l-10 -74h-473zM494 532h456l-63 297l-80 377h-8l-168 -375zM547 1544q8 29 24.5 62.5t42 62.5t60.5 48.5t80 19.5q33 0 66.5 -13.5t66.5 -30t64.5 -29.5t62.5 -13q25 0 42 3t33.5 12t33 24.5t34.5 42.5l41 -15 q-23 -74 -72 -129t-133 -55q-45 0 -77.5 12.5t-61.5 27.5t-57.5 27.5t-61.5 12.5q-41 0 -73.5 -14.5t-67.5 -73.5z" />
<glyph unicode="&#xc4;" horiz-adv-x="1347" d="M23 0l8 76l65 16q47 12 80 45t62 94l489 1006q23 45 43.5 91t40.5 93l98 19l4 -4q66 -299 135.5 -601.5t137.5 -601.5q14 -59 35.5 -97t74.5 -50l43 -10l-8 -76h-479l10 70l92 26q10 2 24.5 9.5t26 20.5t17.5 33.5t0 49.5l-53 237h-516l-91 -204q-10 -23 -15 -41.5 t-5 -34.5q0 -35 24.5 -50.5t67.5 -25.5l72 -16l-10 -74h-473zM494 532h456l-63 297l-80 377h-8l-168 -375zM588 1624q0 43 30.5 75t71.5 32q37 0 59.5 -25t22.5 -59q0 -47 -29.5 -79t-72.5 -32q-35 0 -58.5 24.5t-23.5 63.5zM969 1624q0 43 30.5 75t71.5 32q35 0 58.5 -25 t23.5 -59q0 -47 -30.5 -79t-71.5 -32q-35 0 -58.5 24.5t-23.5 63.5z" />
<glyph unicode="&#xc5;" horiz-adv-x="1347" d="M23 0l8 76l65 16q47 12 80 45t62 94l489 1006q23 45 43.5 91t40.5 93l98 19l4 -4q66 -299 135.5 -601.5t137.5 -601.5q14 -59 35.5 -97t74.5 -50l43 -10l-8 -76h-479l10 70l92 26q10 2 24.5 9.5t26 20.5t17.5 33.5t0 49.5l-53 237h-516l-91 -204q-10 -23 -15 -41.5 t-5 -34.5q0 -35 24.5 -50.5t67.5 -25.5l72 -16l-10 -74h-473zM494 532h456l-63 297l-80 377h-8l-168 -375zM686 1653q0 43 17.5 83t46 70.5t68.5 49t83 18.5q76 0 125 -52.5t49 -125.5q0 -47 -18.5 -87t-48 -69t-68.5 -46t-80 -17q-76 0 -125 50t-49 126zM762 1665 q0 -45 29.5 -80t76.5 -35q25 0 47.5 12.5t41 32t28.5 44t10 49.5q0 45 -29.5 79.5t-72.5 34.5q-53 0 -92 -42t-39 -95z" />
<glyph unicode="&#xc6;" horiz-adv-x="1972" d="M43 0l6 68l62 16q49 14 79.5 43t63.5 76q184 258 376.5 519t379.5 517q14 20 15 35.5t-4 25t-16.5 14.5t-21.5 9l-55 16l14 70q49 -2 135 -3t177.5 -1h171h116.5q68 0 120 1t100 2t96.5 2t109.5 3l21 -10q-4 -96 -11.5 -189.5t-13.5 -189.5l-59 -10l-25 145 q-6 43 -15.5 69.5t-26.5 41t-44 19.5t-68 5q-59 2 -149 3t-236 1l-49 -567q133 4 266.5 8t266.5 9l-15 -127l-528 16l-37 -418q-4 -37 -1 -58.5t15.5 -32.5t35 -14t59.5 -3q88 0 160.5 2t127.5 4q35 0 64 5t53.5 18.5t46 38t41.5 67.5l84 168l58 -15q-23 -96 -42.5 -189 t-39.5 -190q-4 -4 -11.5 -10t-11.5 -10q-72 0 -126 1t-106.5 2t-109.5 2t-137 1h-113.5t-130 -1t-133 -2t-123.5 -3q0 18 -1 32.5t-1 33.5l82 26q57 18 75.5 46t26.5 87l25 271h-498l-211 -299q-25 -33 -24 -58q0 -20 18.5 -32.5t46.5 -18.5l76 -16l-6 -72h-471zM686 600 h436l60 686h-8z" />
<glyph unicode="&#xc7;" horiz-adv-x="1251" d="M188 569q0 162 42 318.5t131.5 280.5t228.5 200t332 76q33 0 80 -5t97 -19.5t100 -39t91 -63.5q-16 -78 -30.5 -154t-28.5 -153l-66 -2l-6 141q-4 57 -24.5 95t-52 59.5t-73.5 29.5t-87 8q-158 0 -265.5 -70.5t-175 -183t-97.5 -252t-30 -276.5q0 -76 16.5 -160 t59.5 -155.5t120 -118.5t198 -47q96 0 187 11t191 46l25 -74q-96 -43 -191.5 -64.5t-181.5 -27.5l-98 -119q84 -4 143.5 -39.5t59.5 -107.5q0 -47 -29 -86t-79 -67.5t-119.5 -46t-151.5 -17.5l4 59q41 4 85 13.5t80 26t59.5 40t23.5 53.5q0 29 -18.5 46.5t-44 26.5 t-55.5 13.5t-54 6.5l-15 32q35 41 68 82t68 82q-133 0 -230.5 43t-161 121t-94.5 189.5t-31 248.5z" />
<glyph unicode="&#xc8;" horiz-adv-x="1220" d="M96 0v63l99 29q35 10 61.5 35t32.5 78q31 242 61.5 497.5t61.5 499.5q6 47 -1.5 71.5t-60.5 43.5l-78 26l15 66q49 -2 118.5 -3t141 -1h135h102.5q94 0 157 1t132 3l139 4q4 -4 8.5 -5t8.5 -5q-8 -96 -17.5 -189.5t-19.5 -189.5l-68 -10l-24 186q-4 47 -28.5 70.5 t-88.5 23.5q-59 0 -150.5 2t-252.5 2l-62 -516q133 4 265 8.5t266 8.5l-17 -127l-526 16l-60 -469q-8 -72 15.5 -89t83.5 -17q33 0 76 1t87 2l88 2t78 1q33 0 55.5 6t39 18.5t32 33t31.5 50.5l103 187l59 -15l-94 -383l-19 -16q-72 0 -126 1t-107 2t-111.5 2t-138.5 1 h-113.5t-130 -1t-134 -2t-124.5 -3zM516 1679q23 33 46.5 66t45.5 65l310 -249l-50 -68q-90 47 -175 93t-177 93z" />
<glyph unicode="&#xc9;" horiz-adv-x="1220" d="M96 0v63l99 29q35 10 61.5 35t32.5 78q31 242 61.5 497.5t61.5 499.5q6 47 -1.5 71.5t-60.5 43.5l-78 26l15 66q49 -2 118.5 -3t141 -1h135h102.5q94 0 157 1t132 3l139 4q4 -4 8.5 -5t8.5 -5q-8 -96 -17.5 -189.5t-19.5 -189.5l-68 -10l-24 186q-4 47 -28.5 70.5 t-88.5 23.5q-59 0 -150.5 2t-252.5 2l-62 -516q133 4 265 8.5t266 8.5l-17 -127l-526 16l-60 -469q-8 -72 15.5 -89t83.5 -17q33 0 76 1t87 2l88 2t78 1q33 0 55.5 6t39 18.5t32 33t31.5 50.5l103 187l59 -15l-94 -383l-19 -16q-72 0 -126 1t-107 2t-111.5 2t-138.5 1 h-113.5t-130 -1t-134 -2t-124.5 -3zM641 1561l363 249q16 -35 31.5 -65.5t31.5 -65.5q-100 -47 -195.5 -93t-193.5 -93z" />
<glyph unicode="&#xca;" horiz-adv-x="1220" d="M96 0v63l99 29q35 10 61.5 35t32.5 78q31 242 61.5 497.5t61.5 499.5q6 47 -1.5 71.5t-60.5 43.5l-78 26l15 66q49 -2 118.5 -3t141 -1h135h102.5q94 0 157 1t132 3l139 4q4 -4 8.5 -5t8.5 -5q-8 -96 -17.5 -189.5t-19.5 -189.5l-68 -10l-24 186q-4 47 -28.5 70.5 t-88.5 23.5q-59 0 -150.5 2t-252.5 2l-62 -516q133 4 265 8.5t266 8.5l-17 -127l-526 16l-60 -469q-8 -72 15.5 -89t83.5 -17q33 0 76 1t87 2l88 2t78 1q33 0 55.5 6t39 18.5t32 33t31.5 50.5l103 187l59 -15l-94 -383l-19 -16q-72 0 -126 1t-107 2t-111.5 2t-138.5 1 h-113.5t-130 -1t-134 -2t-124.5 -3zM424 1526q86 78 174 155.5t174 155.5h88q70 -74 144.5 -153.5t144.5 -155.5l-45 -49l-303 227l-346 -225q-6 10 -15.5 22.5t-15.5 22.5z" />
<glyph unicode="&#xcb;" horiz-adv-x="1220" d="M96 0v63l99 29q35 10 61.5 35t32.5 78q31 242 61.5 497.5t61.5 499.5q6 47 -1.5 71.5t-60.5 43.5l-78 26l15 66q49 -2 118.5 -3t141 -1h135h102.5q94 0 157 1t132 3l139 4q4 -4 8.5 -5t8.5 -5q-8 -96 -17.5 -189.5t-19.5 -189.5l-68 -10l-24 186q-4 47 -28.5 70.5 t-88.5 23.5q-59 0 -150.5 2t-252.5 2l-62 -516q133 4 265 8.5t266 8.5l-17 -127l-526 16l-60 -469q-8 -72 15.5 -89t83.5 -17q33 0 76 1t87 2l88 2t78 1q33 0 55.5 6t39 18.5t32 33t31.5 50.5l103 187l59 -15l-94 -383l-19 -16q-72 0 -126 1t-107 2t-111.5 2t-138.5 1 h-113.5t-130 -1t-134 -2t-124.5 -3zM530 1624q0 43 31 75t72 32q37 0 59.5 -25t22.5 -59q0 -47 -30 -79t-73 -32q-35 0 -58.5 24.5t-23.5 63.5zM911 1624q0 43 31 75t72 32q35 0 58.5 -25t23.5 -59q0 -47 -31 -79t-72 -32q-35 0 -58.5 24.5t-23.5 63.5z" />
<glyph unicode="&#xcc;" horiz-adv-x="755" d="M119 0l8 63l84 27q29 8 47 18.5t30.5 24.5t19.5 33.5t11 48.5l121 987q8 57 -8 76.5t-65 36.5l-84 28l10 64h516l-10 -72l-80 -20q-37 -10 -60.5 -21.5t-37 -26t-19.5 -32.5t-8 -43l-121 -987q-4 -51 13.5 -76t66.5 -37l92 -22l-10 -70h-516zM215 1679q23 33 46.5 66 t45.5 65l309 -249l-49 -68q-90 47 -175 93t-177 93z" />
<glyph unicode="&#xcd;" horiz-adv-x="755" d="M119 0l8 63l84 27q29 8 47 18.5t30.5 24.5t19.5 33.5t11 48.5l121 987q8 57 -8 76.5t-65 36.5l-84 28l10 64h516l-10 -72l-80 -20q-37 -10 -60.5 -21.5t-37 -26t-19.5 -32.5t-8 -43l-121 -987q-4 -51 13.5 -76t66.5 -37l92 -22l-10 -70h-516zM426 1561l362 249 q16 -35 32 -65.5t32 -65.5q-100 -47 -195.5 -93t-193.5 -93z" />
<glyph unicode="&#xce;" horiz-adv-x="755" d="M119 0l8 63l84 27q29 8 47 18.5t30.5 24.5t19.5 33.5t11 48.5l121 987q8 57 -8 76.5t-65 36.5l-84 28l10 64h516l-10 -72l-80 -20q-37 -10 -60.5 -21.5t-37 -26t-19.5 -32.5t-8 -43l-121 -987q-4 -51 13.5 -76t66.5 -37l92 -22l-10 -70h-516zM201 1526q86 78 174 155.5 t174 155.5h88q70 -74 144.5 -153.5t144.5 -155.5l-45 -49l-303 227l-347 -225q-6 10 -15 22.5t-15 22.5z" />
<glyph unicode="&#xcf;" horiz-adv-x="755" d="M119 0l8 63l84 27q29 8 47 18.5t30.5 24.5t19.5 33.5t11 48.5l121 987q8 57 -8 76.5t-65 36.5l-84 28l10 64h516l-10 -72l-80 -20q-37 -10 -60.5 -21.5t-37 -26t-19.5 -32.5t-8 -43l-121 -987q-4 -51 13.5 -76t66.5 -37l92 -22l-10 -70h-516zM297 1624q0 43 30.5 75 t71.5 32q37 0 59.5 -25t22.5 -59q0 -47 -29.5 -79t-72.5 -32q-35 0 -58.5 24.5t-23.5 63.5zM678 1624q0 43 30.5 75t71.5 32q35 0 58.5 -25t23.5 -59q0 -47 -30.5 -79t-71.5 -32q-35 0 -58.5 24.5t-23.5 63.5z" />
<glyph unicode="&#xd0;" horiz-adv-x="1411" d="M113 2v59l104 35q53 18 68.5 46t19.5 69l53 440h-170l13 101h170l59 465q4 45 -7 63t-58 35l-82 26l20 66q37 0 61.5 -1t47 -2t48 -1h64.5q45 0 84 1t75 3t74 3t81 1q166 0 277.5 -48t179 -128t95 -183.5t27.5 -215.5q0 -66 -11 -153t-41 -180t-82 -183.5t-134 -161 t-196.5 -114.5t-270.5 -44q-10 0 -52 1t-90 2t-89.5 2t-49.5 1h-80.5h-61.5t-62.5 -1t-83.5 -3zM463 242q-6 -47 1 -74t31.5 -42t67.5 -19.5t109 -4.5q158 0 269.5 63.5t182 167t102 233.5t31.5 263q0 141 -37.5 233.5t-104 147t-158 76t-197.5 21.5q-45 0 -91 -2t-75 -7 l-68 -546h324l-12 -101h-324z" />
<glyph unicode="&#xd1;" horiz-adv-x="1615" d="M68 0l8 68l104 26q49 14 79 42t40 106l131 925q8 59 -6 95t-72 55l-94 29l14 65q47 -2 93.5 -2h89.5h104t80 2q12 -35 27.5 -66.5t27.5 -54.5q92 -162 188.5 -333t188.5 -330l191 -326l47 432q12 104 24.5 210t22.5 210q8 82 -14.5 112.5t-75.5 47.5q-18 4 -38 11t-38 11 l8 72h508l-10 -74l-84 -18q-31 -8 -53.5 -18.5t-38 -29t-25.5 -48t-16 -74.5q-33 -240 -68 -484.5t-68 -486.5l-24 -176l-76 -25q-106 186 -215.5 375t-216.5 375l-266 469l-15 -2q-27 -229 -52 -473t-52 -473q-8 -80 15.5 -110t76.5 -40l90 -20l-8 -74h-532zM649 1544 q8 29 24.5 62.5t42 62.5t60.5 48.5t80 19.5q33 0 66.5 -13.5t66.5 -30t64.5 -29.5t62.5 -13q25 0 42.5 3t33.5 12t32.5 24.5t35.5 42.5l40 -15q-23 -74 -71.5 -129t-132.5 -55q-45 0 -78 12.5t-61.5 27.5t-57.5 27.5t-61 12.5q-41 0 -74 -14.5t-68 -73.5z" />
<glyph unicode="&#xd2;" horiz-adv-x="1423" d="M190 514q0 213 57.5 384t158 292t237.5 185.5t295 64.5q106 0 190 -39t143.5 -109.5t92.5 -169t35 -215.5q0 -205 -50.5 -377t-145.5 -296.5t-232 -195.5t-309 -71q-102 0 -187.5 39t-148 110.5t-98 173t-38.5 224.5zM365 592q0 -246 88 -386t284 -140q121 0 213 71.5 t155.5 184t95.5 251t32 271.5q0 104 -21.5 195t-65.5 158t-114 105.5t-164 38.5q-104 0 -195 -63.5t-160 -168.5t-108.5 -240.5t-39.5 -276.5zM598 1679q23 33 46.5 66t45.5 65l309 -249l-49 -68q-90 47 -175 93t-177 93z" />
<glyph unicode="&#xd3;" horiz-adv-x="1423" d="M190 514q0 213 57.5 384t158 292t237.5 185.5t295 64.5q106 0 190 -39t143.5 -109.5t92.5 -169t35 -215.5q0 -205 -50.5 -377t-145.5 -296.5t-232 -195.5t-309 -71q-102 0 -187.5 39t-148 110.5t-98 173t-38.5 224.5zM365 592q0 -246 88 -386t284 -140q121 0 213 71.5 t155.5 184t95.5 251t32 271.5q0 104 -21.5 195t-65.5 158t-114 105.5t-164 38.5q-104 0 -195 -63.5t-160 -168.5t-108.5 -240.5t-39.5 -276.5zM838 1587l362 250q16 -35 31.5 -65.5t32.5 -65.5q-100 -47 -195.5 -93t-194.5 -93z" />
<glyph unicode="&#xd4;" horiz-adv-x="1423" d="M190 514q0 213 57.5 384t158 292t237.5 185.5t295 64.5q106 0 190 -39t143.5 -109.5t92.5 -169t35 -215.5q0 -205 -50.5 -377t-145.5 -296.5t-232 -195.5t-309 -71q-102 0 -187.5 39t-148 110.5t-98 173t-38.5 224.5zM365 592q0 -246 88 -386t284 -140q121 0 213 71.5 t155.5 184t95.5 251t32 271.5q0 104 -21.5 195t-65.5 158t-114 105.5t-164 38.5q-104 0 -195 -63.5t-160 -168.5t-108.5 -240.5t-39.5 -276.5zM573 1526q86 78 174.5 155.5t174.5 155.5h88q70 -74 144.5 -153.5t143.5 -155.5l-45 -49l-303 227l-346 -225q-6 10 -15 22.5 t-16 22.5z" />
<glyph unicode="&#xd5;" horiz-adv-x="1423" d="M190 514q0 213 57.5 384t158 292t237.5 185.5t295 64.5q106 0 190 -39t143.5 -109.5t92.5 -169t35 -215.5q0 -205 -50.5 -377t-145.5 -296.5t-232 -195.5t-309 -71q-102 0 -187.5 39t-148 110.5t-98 173t-38.5 224.5zM365 592q0 -246 88 -386t284 -140q121 0 213 71.5 t155.5 184t95.5 251t32 271.5q0 104 -21.5 195t-65.5 158t-114 105.5t-164 38.5q-104 0 -195 -63.5t-160 -168.5t-108.5 -240.5t-39.5 -276.5zM610 1544q8 29 24.5 62.5t42 62.5t60.5 48.5t80 19.5q33 0 67 -13.5t66.5 -30t64.5 -29.5t62 -13q25 0 42.5 3t33.5 12t32.5 24.5 t35.5 42.5l41 -15q-23 -74 -72 -129t-133 -55q-45 0 -78 12.5t-61.5 27.5t-57.5 27.5t-61 12.5q-41 0 -74 -14.5t-68 -73.5z" />
<glyph unicode="&#xd6;" horiz-adv-x="1423" d="M190 514q0 213 57.5 384t158 292t237.5 185.5t295 64.5q106 0 190 -39t143.5 -109.5t92.5 -169t35 -215.5q0 -205 -50.5 -377t-145.5 -296.5t-232 -195.5t-309 -71q-102 0 -187.5 39t-148 110.5t-98 173t-38.5 224.5zM365 592q0 -246 88 -386t284 -140q121 0 213 71.5 t155.5 184t95.5 251t32 271.5q0 104 -21.5 195t-65.5 158t-114 105.5t-164 38.5q-104 0 -195 -63.5t-160 -168.5t-108.5 -240.5t-39.5 -276.5zM690 1624q0 43 31 75t72 32q37 0 59 -25t22 -59q0 -47 -29.5 -79t-72.5 -32q-35 0 -58.5 24.5t-23.5 63.5zM1071 1624q0 43 31 75 t72 32q35 0 58 -25t23 -59q0 -47 -30.5 -79t-71.5 -32q-35 0 -58.5 24.5t-23.5 63.5z" />
<glyph unicode="&#xd7;" d="M211 279l311 284q-55 66 -119.5 140.5t-119.5 140.5q23 20 42 36.5t42 39.5l239 -283l307 283q16 -20 34 -41t34 -39l-309 -281q55 -68 116.5 -140.5t118.5 -137.5q-23 -20 -40 -38t-40 -38l-235 278l-311 -282q-16 18 -35 38.5t-35 39.5z" />
<glyph unicode="&#xd8;" horiz-adv-x="1423" d="M125 66l139 143q-35 63 -53 139t-21 166q-4 213 54.5 384t161 292t239.5 185.5t293 64.5q115 0 203 -45t147 -125l133 139l47 -55l-141 -146q68 -127 72 -301q2 -205 -48.5 -377t-146.5 -296.5t-234.5 -195.5t-307.5 -71q-113 0 -204 46t-155 132l-129 -133zM365 575 q0 -135 26 -233l780 809q-43 88 -117.5 139t-185.5 51q-104 0 -197 -65.5t-163 -173t-109 -245.5t-34 -282zM418 266q43 -98 120.5 -149t198.5 -51q123 0 216.5 73.5t157 189t94 257t28.5 276.5q-4 121 -33 215z" />
<glyph unicode="&#xd9;" horiz-adv-x="1478" d="M252 1343l8 64h518q-2 -20 -5 -36.5t-5 -35.5l-82 -20q-74 -18 -95.5 -46t-27.5 -77l-84 -692q-4 -35 -7 -71t-3 -67q0 -61 13.5 -114t47 -91t92 -59.5t150.5 -21.5q113 0 183.5 35.5t111.5 96t59.5 136.5t28.5 156l86 702q4 29 2 47.5t-11 30.5t-25.5 19.5t-39.5 15.5 l-82 28l9 64h467l-11 -76l-67 -16q-76 -18 -97.5 -46t-27.5 -77l-94 -764q-29 -225 -164 -345t-371 -120q-211 0 -317.5 94.5t-106.5 276.5q0 41 6 84l99 784q8 57 -10.5 76.5t-65.5 36.5zM582 1679l46 66t46 65l309 -249l-49 -68q-90 47 -175 93t-177 93z" />
<glyph unicode="&#xda;" horiz-adv-x="1478" d="M252 1343l8 64h518q-2 -20 -5 -36.5t-5 -35.5l-82 -20q-74 -18 -95.5 -46t-27.5 -77l-84 -692q-4 -35 -7 -71t-3 -67q0 -61 13.5 -114t47 -91t92 -59.5t150.5 -21.5q113 0 183.5 35.5t111.5 96t59.5 136.5t28.5 156l86 702q4 29 2 47.5t-11 30.5t-25.5 19.5t-39.5 15.5 l-82 28l9 64h467l-11 -76l-67 -16q-76 -18 -97.5 -46t-27.5 -77l-94 -764q-29 -225 -164 -345t-371 -120q-211 0 -317.5 94.5t-106.5 276.5q0 41 6 84l99 784q8 57 -10.5 76.5t-65.5 36.5zM825 1561l363 249q16 -35 31.5 -65.5t31.5 -65.5q-100 -47 -195 -93t-194 -93z" />
<glyph unicode="&#xdb;" horiz-adv-x="1478" d="M252 1343l8 64h518q-2 -20 -5 -36.5t-5 -35.5l-82 -20q-74 -18 -95.5 -46t-27.5 -77l-84 -692q-4 -35 -7 -71t-3 -67q0 -61 13.5 -114t47 -91t92 -59.5t150.5 -21.5q113 0 183.5 35.5t111.5 96t59.5 136.5t28.5 156l86 702q4 29 2 47.5t-11 30.5t-25.5 19.5t-39.5 15.5 l-82 28l9 64h467l-11 -76l-67 -16q-76 -18 -97.5 -46t-27.5 -77l-94 -764q-29 -225 -164 -345t-371 -120q-211 0 -317.5 94.5t-106.5 276.5q0 41 6 84l99 784q8 57 -10.5 76.5t-65.5 36.5zM582 1526q86 78 174 155.5t174 155.5h88q70 -74 144.5 -153.5t144.5 -155.5l-45 -49 l-304 227l-346 -225q-6 10 -15 22.5t-15 22.5z" />
<glyph unicode="&#xdc;" horiz-adv-x="1478" d="M252 1343l8 64h518q-2 -20 -5 -36.5t-5 -35.5l-82 -20q-74 -18 -95.5 -46t-27.5 -77l-84 -692q-4 -35 -7 -71t-3 -67q0 -61 13.5 -114t47 -91t92 -59.5t150.5 -21.5q113 0 183.5 35.5t111.5 96t59.5 136.5t28.5 156l86 702q4 29 2 47.5t-11 30.5t-25.5 19.5t-39.5 15.5 l-82 28l9 64h467l-11 -76l-67 -16q-76 -18 -97.5 -46t-27.5 -77l-94 -764q-29 -225 -164 -345t-371 -120q-211 0 -317.5 94.5t-106.5 276.5q0 41 6 84l99 784q8 57 -10.5 76.5t-65.5 36.5zM684 1624q0 43 30.5 75t71.5 32q37 0 59.5 -25t22.5 -59q0 -47 -29.5 -79t-72.5 -32 q-35 0 -58.5 24.5t-23.5 63.5zM1065 1624q0 43 30.5 75t71.5 32q35 0 58.5 -25t23.5 -59q0 -47 -30.5 -79t-71.5 -32q-35 0 -58.5 24.5t-23.5 63.5z" />
<glyph unicode="&#xdd;" horiz-adv-x="1239" d="M193 1339l10 70h289q-6 -92 38 -207l191 -481h18l291 479q23 37 15.5 68.5t-66.5 48.5l-64 16l11 74q104 0 208.5 1t208.5 1l-10 -74q-37 -16 -66.5 -38.5t-59 -55.5t-62.5 -77t-72 -101l-293 -440l-51 -414q-6 -53 12.5 -76.5t69.5 -36.5l90 -22l-8 -74h-516l8 63l84 27 q27 8 45 18.5t30.5 24.5t19.5 33.5t11 48.5l43 340l-268 664q-10 25 -17 39t-16.5 25t-23.5 18.5t-37 15.5zM643 1561l363 249q16 -35 31.5 -65.5t31.5 -65.5q-100 -47 -195.5 -93t-193.5 -93z" />
<glyph unicode="&#xde;" horiz-adv-x="1181" d="M121 0l8 63l86 27q27 8 45.5 18.5t30.5 24.5t19 33.5t12 48.5l120 987q8 57 -8 76.5t-65 36.5l-82 28l8 64h516l-10 -72l-80 -20q-74 -18 -95.5 -43t-27.5 -74l-4 -53q41 4 85 6t87 4q94 2 185 -10t162 -50t114 -107.5t43 -184.5q0 -98 -37 -186.5t-106.5 -155 t-173 -104.5t-234.5 -38q-35 0 -94.5 3.5t-132.5 19.5l-17 -133q-4 -51 13.5 -75.5t68.5 -37.5l90 -22l-8 -74h-518zM502 442q47 -10 98 -13t74 -3q133 0 217 34t132 86t65.5 114.5t17.5 121.5q0 145 -93 206t-259 61q-45 0 -91.5 -4.5t-87.5 -14.5z" />
<glyph unicode="&#xdf;" horiz-adv-x="1001" d="M-424 -385q0 27 15.5 53.5t43.5 42.5q55 -59 108.5 -83.5t121.5 -24.5q59 0 95 36.5t57.5 102t33.5 159t27 208.5q37 338 91 583.5t114 392.5q29 61 69.5 128t97 121.5t133.5 90t177 35.5q45 0 87 -13t74.5 -40t52 -68t19.5 -94q0 -41 -12 -73.5t-32.5 -60.5t-47.5 -52.5 t-55 -48.5q-29 -25 -57.5 -51.5t-51 -59.5t-37 -72t-14.5 -88q0 -55 44 -123.5t97.5 -139t97.5 -138.5t44 -123q0 -68 -31 -115t-78 -77.5t-107.5 -45t-117.5 -14.5q-72 0 -119 14.5t-74.5 36t-39 44t-11.5 40.5q0 29 25.5 65t79.5 52q8 -37 29.5 -67.5t51 -53t63.5 -35 t69 -12.5t68.5 21.5t33.5 64.5q0 37 -19.5 82t-49 92t-64.5 96.5t-64.5 96.5t-49 89t-19.5 77q0 92 46 162.5t101.5 129t101.5 111.5t46 113q0 86 -43 134t-115 48q-102 0 -170 -81t-113 -211t-74.5 -296t-54.5 -334q-18 -121 -33.5 -236.5t-38 -220t-54 -193.5t-82 -153.5 t-122 -100.5t-173.5 -36q-27 0 -60 5.5t-62.5 18.5t-49 34.5t-19.5 54.5z" />
<glyph unicode="&#xe0;" horiz-adv-x="1093" d="M137 295q0 37 3 75t10 72q18 98 67 194.5t112.5 173.5t133.5 125t129 48q57 0 120.5 -4t145.5 -21q20 29 33.5 42.5t30.5 13.5q10 0 26.5 -3t32.5 -8.5t28.5 -13.5t12.5 -20q0 -10 -2 -17q-29 -90 -51.5 -198.5t-40 -222t-26.5 -224t-11 -203.5q53 4 96 19.5t94 44.5 l29 -33q-20 -25 -52 -51.5t-70 -50t-77 -38.5t-71 -15q-53 0 -80 21.5t-27 92.5q0 29 2 73t7.5 95t12.5 104.5t17 100.5l-8 2q-135 -252 -251 -368.5t-214 -116.5q-66 0 -114 72.5t-48 238.5zM301 356q0 -109 23.5 -157.5t66.5 -48.5t100.5 51t115 126.5t108.5 163t80 158.5 l28 152q-43 41 -108.5 59.5t-108.5 18.5q-76 0 -133 -49.5t-95 -126t-57.5 -169t-19.5 -178.5zM492 1409l122 98l195 -352q-18 -14 -32.5 -26.5t-33.5 -26.5q-61 76 -124.5 153.5t-126.5 153.5z" />
<glyph unicode="&#xe1;" horiz-adv-x="1093" d="M137 295q0 37 3 75t10 72q18 98 67 194.5t112.5 173.5t133.5 125t129 48q57 0 120.5 -4t145.5 -21q20 29 33.5 42.5t30.5 13.5q10 0 26.5 -3t32.5 -8.5t28.5 -13.5t12.5 -20q0 -10 -2 -17q-29 -90 -51.5 -198.5t-40 -222t-26.5 -224t-11 -203.5q53 4 96 19.5t94 44.5 l29 -33q-20 -25 -52 -51.5t-70 -50t-77 -38.5t-71 -15q-53 0 -80 21.5t-27 92.5q0 29 2 73t7.5 95t12.5 104.5t17 100.5l-8 2q-135 -252 -251 -368.5t-214 -116.5q-66 0 -114 72.5t-48 238.5zM301 356q0 -109 23.5 -157.5t66.5 -48.5t100.5 51t115 126.5t108.5 163t80 158.5 l28 152q-43 41 -108.5 59.5t-108.5 18.5q-76 0 -133 -49.5t-95 -126t-57.5 -169t-19.5 -178.5zM578 1153l278 354q51 -53 105 -98q-80 -74 -164 -154.5t-162 -154.5z" />
<glyph unicode="&#xe2;" horiz-adv-x="1093" d="M137 295q0 37 3 75t10 72q18 98 67 194.5t112.5 173.5t133.5 125t129 48q57 0 120.5 -4t145.5 -21q20 29 33.5 42.5t30.5 13.5q10 0 26.5 -3t32.5 -8.5t28.5 -13.5t12.5 -20q0 -10 -2 -17q-29 -90 -51.5 -198.5t-40 -222t-26.5 -224t-11 -203.5q53 4 96 19.5t94 44.5 l29 -33q-20 -25 -52 -51.5t-70 -50t-77 -38.5t-71 -15q-53 0 -80 21.5t-27 92.5q0 29 2 73t7.5 95t12.5 104.5t17 100.5l-8 2q-135 -252 -251 -368.5t-214 -116.5q-66 0 -114 72.5t-48 238.5zM301 356q0 -109 23.5 -157.5t66.5 -48.5t100.5 51t115 126.5t108.5 163t80 158.5 l28 152q-43 41 -108.5 59.5t-108.5 18.5q-76 0 -133 -49.5t-95 -126t-57.5 -169t-19.5 -178.5zM373 1171q86 78 176 156t176 156h90q68 -72 141.5 -153t141.5 -156l-45 -50l-299 228q-84 -53 -173 -112.5t-178 -113.5q-6 10 -15 22.5t-15 22.5z" />
<glyph unicode="&#xe3;" horiz-adv-x="1093" d="M137 295q0 37 3 75t10 72q18 98 67 194.5t112.5 173.5t133.5 125t129 48q57 0 120.5 -4t145.5 -21q20 29 33.5 42.5t30.5 13.5q10 0 26.5 -3t32.5 -8.5t28.5 -13.5t12.5 -20q0 -10 -2 -17q-29 -90 -51.5 -198.5t-40 -222t-26.5 -224t-11 -203.5q53 4 96 19.5t94 44.5 l29 -33q-20 -25 -52 -51.5t-70 -50t-77 -38.5t-71 -15q-53 0 -80 21.5t-27 92.5q0 29 2 73t7.5 95t12.5 104.5t17 100.5l-8 2q-135 -252 -251 -368.5t-214 -116.5q-66 0 -114 72.5t-48 238.5zM301 356q0 -109 23.5 -157.5t66.5 -48.5t100.5 51t115 126.5t108.5 163t80 158.5 l28 152q-43 41 -108.5 59.5t-108.5 18.5q-76 0 -133 -49.5t-95 -126t-57.5 -169t-19.5 -178.5zM406 1196q8 29 24 62.5t42 62.5t60.5 48.5t79.5 19.5q33 0 67 -13.5t66.5 -30t64.5 -29.5t62 -13q25 0 42.5 3t34 12t32.5 24.5t35 41.5l41 -14q-23 -74 -72 -129t-133 -55 q-45 0 -78 12t-61.5 27.5t-57 28t-61.5 12.5q-41 0 -74 -14.5t-67 -73.5z" />
<glyph unicode="&#xe4;" horiz-adv-x="1093" d="M137 295q0 37 3 75t10 72q18 98 67 194.5t112.5 173.5t133.5 125t129 48q57 0 120.5 -4t145.5 -21q20 29 33.5 42.5t30.5 13.5q10 0 26.5 -3t32.5 -8.5t28.5 -13.5t12.5 -20q0 -10 -2 -17q-29 -90 -51.5 -198.5t-40 -222t-26.5 -224t-11 -203.5q53 4 96 19.5t94 44.5 l29 -33q-20 -25 -52 -51.5t-70 -50t-77 -38.5t-71 -15q-53 0 -80 21.5t-27 92.5q0 29 2 73t7.5 95t12.5 104.5t17 100.5l-8 2q-135 -252 -251 -368.5t-214 -116.5q-66 0 -114 72.5t-48 238.5zM301 356q0 -109 23.5 -157.5t66.5 -48.5t100.5 51t115 126.5t108.5 163t80 158.5 l28 152q-43 41 -108.5 59.5t-108.5 18.5q-76 0 -133 -49.5t-95 -126t-57.5 -169t-19.5 -178.5zM457 1268q6 41 35.5 68.5t70.5 27.5q37 0 60.5 -27.5t17.5 -68.5q-4 -41 -33.5 -70t-70.5 -29q-35 0 -59.5 29t-20.5 70zM838 1268q4 41 33.5 68.5t70.5 27.5q39 0 62.5 -27.5 t17.5 -68.5q-4 -41 -35 -70t-67 -29q-41 0 -63.5 29t-18.5 70z" />
<glyph unicode="&#xe5;" horiz-adv-x="1093" d="M137 295q0 37 3 75t10 72q18 98 67 194.5t112.5 173.5t133.5 125t129 48q57 0 120.5 -4t145.5 -21q20 29 33.5 42.5t30.5 13.5q10 0 26.5 -3t32.5 -8.5t28.5 -13.5t12.5 -20q0 -10 -2 -17q-29 -90 -51.5 -198.5t-40 -222t-26.5 -224t-11 -203.5q53 4 96 19.5t94 44.5 l29 -33q-20 -25 -52 -51.5t-70 -50t-77 -38.5t-71 -15q-53 0 -80 21.5t-27 92.5q0 29 2 73t7.5 95t12.5 104.5t17 100.5l-8 2q-135 -252 -251 -368.5t-214 -116.5q-66 0 -114 72.5t-48 238.5zM301 356q0 -109 23.5 -157.5t66.5 -48.5t100.5 51t115 126.5t108.5 163t80 158.5 l28 152q-43 41 -108.5 59.5t-108.5 18.5q-76 0 -133 -49.5t-95 -126t-57.5 -169t-19.5 -178.5zM553 1313q0 43 17.5 83t46 70.5t68.5 49t83 18.5q76 0 125 -52t49 -126q0 -47 -18.5 -87t-48 -69t-68.5 -46t-80 -17q-76 0 -125 50t-49 126zM629 1325q0 -45 29.5 -80t76.5 -35 q25 0 47.5 12.5t41 32t28.5 44t10 49.5q0 45 -29.5 79.5t-72.5 34.5q-53 0 -92 -42t-39 -95z" />
<glyph unicode="&#xe6;" horiz-adv-x="1417" d="M139 162q0 20 6.5 53t27 70t59 75.5t106.5 70.5t166 53.5t237 25.5q10 49 19.5 99t9.5 93q0 104 -51 144.5t-133 40.5q-59 0 -125 -15.5t-135 -40.5l-21 56q66 41 157 69.5t179 28.5q90 0 161.5 -36t96.5 -126q66 72 155 122t173 50q88 0 141 -54t57 -148 q0 -143 -140 -225.5t-390 -112.5q-2 -18 -5 -64.5t-3 -77.5q0 -100 39 -165.5t114 -65.5q84 0 164 45t150 113l39 -35q-29 -37 -71 -77t-95 -74t-115.5 -55.5t-132.5 -21.5q-168 0 -229 152q-68 -47 -131.5 -76.5t-118 -47t-97.5 -25t-71 -7.5q-92 0 -142.5 41t-50.5 148z M291 193q0 -41 22.5 -75t69.5 -34q94 0 180 33t166 76l2 4q-4 31 -7 63.5t-3 67.5q0 59 6 112q-156 -8 -244 -39.5t-131 -71.5t-52 -78t-9 -58zM905 530l4 -4q63 12 129 32t118 49.5t86 71.5t34 103q0 68 -35 98.5t-72 30.5q-41 0 -81.5 -20.5t-76.5 -66.5t-63.5 -118.5 t-42.5 -175.5z" />
<glyph unicode="&#xe7;" horiz-adv-x="837" d="M147 338q-4 82 15.5 161t57.5 150.5t91.5 135t120.5 114.5q66 47 123.5 70.5t112.5 23.5q57 0 98 -14t67.5 -35.5t38 -47.5t9.5 -46q-2 -31 -34 -59.5t-93 -45.5q-14 76 -49 105t-82 29q-53 0 -88 -17.5t-74 -54.5q-31 -31 -59.5 -82t-50 -111.5t-33 -125t-9.5 -123.5 q4 -133 52.5 -207t146.5 -74q57 0 134 38t149 114l36 -35q-29 -39 -69.5 -76t-87.5 -66.5t-97.5 -51t-97.5 -27.5l-106 -130q84 -4 143 -39.5t59 -107.5q0 -47 -28.5 -86t-78.5 -67.5t-120 -46t-151 -17.5l4 59q41 4 85 13.5t79.5 26t59 40t23.5 53.5q0 29 -18 46.5 t-44 26.5t-55.5 13.5t-54.5 6.5l-14 32q37 43 72 87t71 87q-129 10 -188 105.5t-66 255.5z" />
<glyph unicode="&#xe8;" horiz-adv-x="835" d="M137 305q-4 94 20.5 199.5t67.5 193.5q29 47 77 99.5t104.5 96.5t118 72.5t118.5 28.5q90 0 142.5 -64.5t56.5 -158.5q2 -72 -38 -128t-111.5 -102t-170 -83t-215.5 -70q-4 -25 -5 -45t1 -41q4 -98 42 -159.5t112 -61.5q84 0 164.5 45t150.5 113l37 -35q-29 -37 -70 -77 t-94 -74t-115.5 -55.5t-132.5 -21.5q-252 0 -260 328zM317 465l5 -4q63 12 129.5 38.5t121 65.5t89 89.5t32.5 111.5q-4 66 -37.5 105.5t-70.5 39.5q-41 0 -82 -30.5t-78 -89t-65.5 -141.5t-43.5 -185zM367 1409l122 98l195 -352q-18 -14 -32.5 -26.5t-33.5 -26.5 q-61 76 -124.5 153.5t-126.5 153.5z" />
<glyph unicode="&#xe9;" horiz-adv-x="835" d="M137 305q-4 94 20.5 199.5t67.5 193.5q29 47 77 99.5t104.5 96.5t118 72.5t118.5 28.5q90 0 142.5 -64.5t56.5 -158.5q2 -72 -38 -128t-111.5 -102t-170 -83t-215.5 -70q-4 -25 -5 -45t1 -41q4 -98 42 -159.5t112 -61.5q84 0 164.5 45t150.5 113l37 -35q-29 -37 -70 -77 t-94 -74t-115.5 -55.5t-132.5 -21.5q-252 0 -260 328zM317 465l5 -4q63 12 129.5 38.5t121 65.5t89 89.5t32.5 111.5q-4 66 -37.5 105.5t-70.5 39.5q-41 0 -82 -30.5t-78 -89t-65.5 -141.5t-43.5 -185zM518 1153l279 354q51 -53 104 -98q-80 -74 -164 -154.5t-162 -154.5z " />
<glyph unicode="&#xea;" horiz-adv-x="835" d="M137 305q-4 94 20.5 199.5t67.5 193.5q29 47 77 99.5t104.5 96.5t118 72.5t118.5 28.5q90 0 142.5 -64.5t56.5 -158.5q2 -72 -38 -128t-111.5 -102t-170 -83t-215.5 -70q-4 -25 -5 -45t1 -41q4 -98 42 -159.5t112 -61.5q84 0 164.5 45t150.5 113l37 -35q-29 -37 -70 -77 t-94 -74t-115.5 -55.5t-132.5 -21.5q-252 0 -260 328zM256 1171q86 78 176 156t176 156h90q68 -72 141.5 -153t141.5 -156l-45 -50l-299 228q-84 -53 -173 -112.5t-177 -113.5q-6 10 -15.5 22.5t-15.5 22.5zM317 465l5 -4q63 12 129.5 38.5t121 65.5t89 89.5t32.5 111.5 q-4 66 -37.5 105.5t-70.5 39.5q-41 0 -82 -30.5t-78 -89t-65.5 -141.5t-43.5 -185z" />
<glyph unicode="&#xeb;" horiz-adv-x="835" d="M137 305q-4 94 20.5 199.5t67.5 193.5q29 47 77 99.5t104.5 96.5t118 72.5t118.5 28.5q90 0 142.5 -64.5t56.5 -158.5q2 -72 -38 -128t-111.5 -102t-170 -83t-215.5 -70q-4 -25 -5 -45t1 -41q4 -98 42 -159.5t112 -61.5q84 0 164.5 45t150.5 113l37 -35q-29 -37 -70 -77 t-94 -74t-115.5 -55.5t-132.5 -21.5q-252 0 -260 328zM317 465l5 -4q63 12 129.5 38.5t121 65.5t89 89.5t32.5 111.5q-4 66 -37.5 105.5t-70.5 39.5q-41 0 -82 -30.5t-78 -89t-65.5 -141.5t-43.5 -185zM324 1268q6 41 35.5 68.5t70.5 27.5q37 0 60.5 -27.5t17.5 -68.5 q-4 -41 -34 -70t-71 -29q-35 0 -59 29t-20 70zM705 1268q4 41 33.5 68.5t70.5 27.5q39 0 62.5 -27.5t17.5 -68.5q-4 -41 -35 -70t-68 -29q-41 0 -63 29t-18 70z" />
<glyph unicode="&#xec;" horiz-adv-x="591" d="M125 846q23 25 52.5 51.5t63 48t69.5 35.5t71 14q61 0 86 -33.5t25 -89.5q0 -18 -9.5 -74.5t-24 -133t-31.5 -163.5t-31.5 -166t-27 -141.5t-14.5 -89.5q49 4 98.5 20.5t102.5 45.5l25 -33q-20 -25 -51 -52.5t-66 -51t-71.5 -38.5t-69.5 -15q-68 0 -93.5 27.5t-25.5 74.5 q0 23 12 98.5t31.5 184t44 239.5t49.5 264q-41 -2 -87 -17t-99 -42zM156 1409l123 98l194 -352q-18 -14 -32.5 -26.5t-32.5 -26.5q-61 76 -125 153.5t-127 153.5z" />
<glyph unicode="&#xed;" horiz-adv-x="591" d="M125 846q23 25 52.5 51.5t63 48t69.5 35.5t71 14q61 0 86 -33.5t25 -89.5q0 -18 -9.5 -74.5t-24 -133t-31.5 -163.5t-31.5 -166t-27 -141.5t-14.5 -89.5q49 4 98.5 20.5t102.5 45.5l25 -33q-20 -25 -51 -52.5t-66 -51t-71.5 -38.5t-69.5 -15q-68 0 -93.5 27.5t-25.5 74.5 q0 23 12 98.5t31.5 184t44 239.5t49.5 264q-41 -2 -87 -17t-99 -42zM350 1153l279 354q51 -53 104 -98q-80 -74 -164 -154.5t-161 -154.5z" />
<glyph unicode="&#xee;" horiz-adv-x="591" d="M39 1171q86 78 176 156t176 156h90q68 -72 141.5 -153t141.5 -156l-45 -50l-299 228q-84 -53 -173 -112.5t-177 -113.5q-6 10 -15.5 22.5t-15.5 22.5zM125 846q23 25 52.5 51.5t63 48t69.5 35.5t71 14q61 0 86 -33.5t25 -89.5q0 -18 -9.5 -74.5t-24 -133t-31.5 -163.5 t-31.5 -166t-27 -141.5t-14.5 -89.5q49 4 98.5 20.5t102.5 45.5l25 -33q-20 -25 -51 -52.5t-66 -51t-71.5 -38.5t-69.5 -15q-68 0 -93.5 27.5t-25.5 74.5q0 23 12 98.5t31.5 184t44 239.5t49.5 264q-41 -2 -87 -17t-99 -42z" />
<glyph unicode="&#xef;" horiz-adv-x="591" d="M125 846q23 25 52.5 51.5t63 48t69.5 35.5t71 14q61 0 86 -33.5t25 -89.5q0 -18 -9.5 -74.5t-24 -133t-31.5 -163.5t-31.5 -166t-27 -141.5t-14.5 -89.5q49 4 98.5 20.5t102.5 45.5l25 -33q-20 -25 -51 -52.5t-66 -51t-71.5 -38.5t-69.5 -15q-68 0 -93.5 27.5t-25.5 74.5 q0 23 12 98.5t31.5 184t44 239.5t49.5 264q-41 -2 -87 -17t-99 -42zM147 1268q6 41 36 68.5t71 27.5q37 0 60.5 -27.5t17.5 -68.5q-4 -41 -34 -70t-71 -29q-35 0 -59.5 29t-20.5 70zM528 1268q4 41 34 68.5t71 27.5q39 0 62.5 -27.5t17.5 -68.5q-4 -41 -35 -70t-68 -29 q-41 0 -63.5 29t-18.5 70z" />
<glyph unicode="&#xf0;" horiz-adv-x="1013" d="M137 328q0 135 43 242.5t114 184t161 117.5t182 41q53 0 102 -17t84 -42q-10 90 -39.5 181t-101.5 177l-215 -139l-43 57l209 136q-49 47 -114.5 90t-151.5 84l30 59q190 -63 320 -180l215 139l39 -59l-201 -131q117 -125 171 -279.5t54 -310.5q0 -106 -28.5 -229 t-93 -227.5t-168 -173t-252.5 -68.5q-141 0 -228.5 94t-87.5 254zM303 365q0 -63 12.5 -120t37 -98t64.5 -65.5t95 -24.5q76 0 134.5 44t98 115t61 158t21.5 173q0 61 -9 113.5t-33.5 89t-67 58t-105.5 21.5q-74 0 -131 -39.5t-97 -104t-60.5 -148.5t-20.5 -172z" />
<glyph unicode="&#xf1;" horiz-adv-x="1177" d="M127 846q23 25 51.5 51.5t62 48t70.5 35.5t76 14q68 0 90.5 -28.5t22.5 -75.5q0 -59 -12.5 -147.5t-28.5 -174.5h6q43 57 95 130t113.5 135.5t130 105.5t144.5 43q53 0 86 -37t35 -94t-8 -134t-28.5 -171t-42 -205t-44.5 -238q47 4 93 19.5t100 44.5l28 -31 q-18 -25 -47.5 -52.5t-65.5 -51t-75 -38.5t-74 -15q-47 0 -71.5 14t-33.5 38.5t-8 56.5t7 67q14 88 33.5 176t36 169t27.5 148.5t9 112.5q-2 37 -18.5 56.5t-38.5 19.5q-37 0 -73 -23.5t-68 -54.5q-63 -59 -119 -131t-96 -137q-20 -33 -36 -63t-28 -54q-4 -10 -13 -53 t-19.5 -96.5t-17.5 -102.5t-9 -70q-4 -23 -7.5 -29t-23.5 -10q-29 -8 -57.5 -13t-57.5 -15q-16 4 -20 18q25 125 45 235.5t38.5 214t34 205t27.5 209.5q-78 -2 -184 -59zM377 1196q8 29 24.5 62.5t42 62.5t60.5 48.5t80 19.5q33 0 66.5 -13.5t66.5 -30t64.5 -29.5t62.5 -13 q25 0 42 3t33.5 12t33 24.5t34.5 41.5l41 -14q-23 -74 -72 -129t-133 -55q-45 0 -77.5 12t-61.5 27.5t-57.5 28t-61.5 12.5q-41 0 -73.5 -14.5t-67.5 -73.5z" />
<glyph unicode="&#xf2;" horiz-adv-x="1011" d="M135 358q0 145 46 263t123 201t176 128t208 45q76 0 133.5 -27.5t97 -76.5t60 -116.5t20.5 -147.5q0 -141 -42 -260t-114.5 -205t-173 -134t-216.5 -48q-145 0 -231.5 102t-86.5 276zM309 399q0 -72 12.5 -133t37 -106t64.5 -72t95 -27q80 0 138.5 51.5t97.5 130.5 t57 173t18 180q0 135 -52.5 224t-158.5 89q-68 0 -125 -43t-98 -114.5t-63.5 -163.5t-22.5 -189zM500 1409l123 98l194 -352q-18 -14 -32.5 -26.5t-32.5 -26.5q-61 76 -125 153.5t-127 153.5z" />
<glyph unicode="&#xf3;" horiz-adv-x="1011" d="M135 358q0 145 46 263t123 201t176 128t208 45q76 0 133.5 -27.5t97 -76.5t60 -116.5t20.5 -147.5q0 -141 -42 -260t-114.5 -205t-173 -134t-216.5 -48q-145 0 -231.5 102t-86.5 276zM309 399q0 -72 12.5 -133t37 -106t64.5 -72t95 -27q80 0 138.5 51.5t97.5 130.5 t57 173t18 180q0 135 -52.5 224t-158.5 89q-68 0 -125 -43t-98 -114.5t-63.5 -163.5t-22.5 -189zM592 1153l278 354q51 -53 105 -98q-80 -74 -164 -154.5t-162 -154.5z" />
<glyph unicode="&#xf4;" horiz-adv-x="1011" d="M135 358q0 145 46 263t123 201t176 128t208 45q76 0 133.5 -27.5t97 -76.5t60 -116.5t20.5 -147.5q0 -141 -42 -260t-114.5 -205t-173 -134t-216.5 -48q-145 0 -231.5 102t-86.5 276zM309 399q0 -72 12.5 -133t37 -106t64.5 -72t95 -27q80 0 138.5 51.5t97.5 130.5 t57 173t18 180q0 135 -52.5 224t-158.5 89q-68 0 -125 -43t-98 -114.5t-63.5 -163.5t-22.5 -189zM354 1171q86 78 176.5 156t176.5 156h90q68 -72 141.5 -153t140.5 -156l-45 -50l-299 228q-84 -53 -173 -112.5t-177 -113.5q-6 10 -15.5 22.5t-15.5 22.5z" />
<glyph unicode="&#xf5;" horiz-adv-x="1011" d="M135 358q0 145 46 263t123 201t176 128t208 45q76 0 133.5 -27.5t97 -76.5t60 -116.5t20.5 -147.5q0 -141 -42 -260t-114.5 -205t-173 -134t-216.5 -48q-145 0 -231.5 102t-86.5 276zM309 399q0 -72 12.5 -133t37 -106t64.5 -72t95 -27q80 0 138.5 51.5t97.5 130.5 t57 173t18 180q0 135 -52.5 224t-158.5 89q-68 0 -125 -43t-98 -114.5t-63.5 -163.5t-22.5 -189zM408 1196q8 29 24.5 62.5t42 62.5t60 48.5t79.5 19.5q33 0 67 -13.5t66.5 -30t64.5 -29.5t62 -13q25 0 42.5 3t34 12t32.5 24.5t35 41.5l41 -14q-23 -74 -72 -129t-133 -55 q-45 0 -78 12t-61.5 27.5t-57 28t-61.5 12.5q-41 0 -74 -14.5t-67 -73.5z" />
<glyph unicode="&#xf6;" horiz-adv-x="1011" d="M135 358q0 145 46 263t123 201t176 128t208 45q76 0 133.5 -27.5t97 -76.5t60 -116.5t20.5 -147.5q0 -141 -42 -260t-114.5 -205t-173 -134t-216.5 -48q-145 0 -231.5 102t-86.5 276zM309 399q0 -72 12.5 -133t37 -106t64.5 -72t95 -27q80 0 138.5 51.5t97.5 130.5 t57 173t18 180q0 135 -52.5 224t-158.5 89q-68 0 -125 -43t-98 -114.5t-63.5 -163.5t-22.5 -189zM408 1268q6 41 35.5 68.5t70.5 27.5q37 0 60.5 -27.5t17.5 -68.5q-4 -41 -34 -70t-71 -29q-35 0 -59 29t-20 70zM788 1268q4 41 34 68.5t71 27.5q39 0 62.5 -27.5t17.5 -68.5 q-4 -41 -35 -70t-68 -29q-41 0 -63.5 29t-18.5 70z" />
<glyph unicode="&#xf7;" d="M156 502l14 108h862l-14 -108h-862zM449 174q0 51 34.5 88t81.5 37q41 0 65.5 -26.5t24.5 -65.5q0 -53 -36.5 -89t-83.5 -36q-37 0 -61.5 25.5t-24.5 66.5zM539 905q0 49 35.5 85t78.5 36q41 0 65.5 -26.5t24.5 -65.5q0 -53 -34.5 -89t-81.5 -36q-39 0 -63.5 27.5 t-24.5 68.5z" />
<glyph unicode="&#xf8;" horiz-adv-x="1011" d="M100 16l93 105q-57 98 -58 237q0 145 46 263t123 201t176 128t208 45q129 0 209 -80l96 111l51 -51l-102 -117q57 -96 57 -231q0 -141 -42 -260t-114.5 -205t-173 -134t-216.5 -48q-131 0 -213 81l-84 -94zM309 399q0 -72 13 -133l469 531q-27 53 -70.5 82.5t-102.5 29.5 q-68 0 -125 -43t-98 -114.5t-63.5 -163.5t-22.5 -189zM346 182q25 -55 67 -88t105 -33q80 0 138.5 51.5t97.5 130.5t57 173t18 180q0 66 -12 121z" />
<glyph unicode="&#xf9;" horiz-adv-x="1179" d="M129 838q18 25 48 52.5t66 51t74.5 38.5t73.5 15q47 0 71.5 -15t34 -40t8.5 -56.5t-7 -64.5q-16 -88 -35 -176t-35 -169t-27.5 -148.5t-9.5 -112.5q2 -37 18.5 -56.5t39.5 -19.5q43 0 94 38t100 91t91 113.5t71 103.5q20 33 35.5 62.5t27.5 54.5q4 8 13.5 52t19.5 97.5 t17.5 102.5t9.5 70q4 23 7 28.5t23 10.5q29 8 57.5 13t57.5 15q16 -4 21 -18q-25 -127 -45.5 -236.5t-39 -213t-33.5 -205t-28 -210.5q78 2 185 60l36 -37q-23 -25 -51 -51.5t-62 -48t-71 -35.5t-76 -14q-68 0 -90 28.5t-22 75.5q0 59 12 147t29 175h-7q-43 -59 -95 -131 t-113.5 -134.5t-130 -105.5t-144.5 -43q-53 0 -86 37t-35 94t8.5 134t29 171t41 204.5t44.5 237.5q-47 -4 -93 -19t-99 -44zM487 1409l123 98l195 -352q-18 -14 -32.5 -26.5t-33.5 -26.5q-61 76 -124.5 153.5t-127.5 153.5z" />
<glyph unicode="&#xfa;" horiz-adv-x="1179" d="M129 838q18 25 48 52.5t66 51t74.5 38.5t73.5 15q47 0 71.5 -15t34 -40t8.5 -56.5t-7 -64.5q-16 -88 -35 -176t-35 -169t-27.5 -148.5t-9.5 -112.5q2 -37 18.5 -56.5t39.5 -19.5q43 0 94 38t100 91t91 113.5t71 103.5q20 33 35.5 62.5t27.5 54.5q4 8 13.5 52t19.5 97.5 t17.5 102.5t9.5 70q4 23 7 28.5t23 10.5q29 8 57.5 13t57.5 15q16 -4 21 -18q-25 -127 -45.5 -236.5t-39 -213t-33.5 -205t-28 -210.5q78 2 185 60l36 -37q-23 -25 -51 -51.5t-62 -48t-71 -35.5t-76 -14q-68 0 -90 28.5t-22 75.5q0 59 12 147t29 175h-7q-43 -59 -95 -131 t-113.5 -134.5t-130 -105.5t-144.5 -43q-53 0 -86 37t-35 94t8.5 134t29 171t41 204.5t44.5 237.5q-47 -4 -93 -19t-99 -44zM627 1153l278 354q51 -53 105 -98q-80 -74 -164 -154.5t-162 -154.5z" />
<glyph unicode="&#xfb;" horiz-adv-x="1179" d="M129 838q18 25 48 52.5t66 51t74.5 38.5t73.5 15q47 0 71.5 -15t34 -40t8.5 -56.5t-7 -64.5q-16 -88 -35 -176t-35 -169t-27.5 -148.5t-9.5 -112.5q2 -37 18.5 -56.5t39.5 -19.5q43 0 94 38t100 91t91 113.5t71 103.5q20 33 35.5 62.5t27.5 54.5q4 8 13.5 52t19.5 97.5 t17.5 102.5t9.5 70q4 23 7 28.5t23 10.5q29 8 57.5 13t57.5 15q16 -4 21 -18q-25 -127 -45.5 -236.5t-39 -213t-33.5 -205t-28 -210.5q78 2 185 60l36 -37q-23 -25 -51 -51.5t-62 -48t-71 -35.5t-76 -14q-68 0 -90 28.5t-22 75.5q0 59 12 147t29 175h-7q-43 -59 -95 -131 t-113.5 -134.5t-130 -105.5t-144.5 -43q-53 0 -86 37t-35 94t8.5 134t29 171t41 204.5t44.5 237.5q-47 -4 -93 -19t-99 -44zM365 1171q86 78 176 156t176 156h90q68 -72 141.5 -153t141.5 -156l-46 -50l-299 228q-84 -53 -173 -112.5t-177 -113.5q-6 10 -15 22.5t-15 22.5z " />
<glyph unicode="&#xfc;" horiz-adv-x="1179" d="M129 838q18 25 48 52.5t66 51t74.5 38.5t73.5 15q47 0 71.5 -15t34 -40t8.5 -56.5t-7 -64.5q-16 -88 -35 -176t-35 -169t-27.5 -148.5t-9.5 -112.5q2 -37 18.5 -56.5t39.5 -19.5q43 0 94 38t100 91t91 113.5t71 103.5q20 33 35.5 62.5t27.5 54.5q4 8 13.5 52t19.5 97.5 t17.5 102.5t9.5 70q4 23 7 28.5t23 10.5q29 8 57.5 13t57.5 15q16 -4 21 -18q-25 -127 -45.5 -236.5t-39 -213t-33.5 -205t-28 -210.5q78 2 185 60l36 -37q-23 -25 -51 -51.5t-62 -48t-71 -35.5t-76 -14q-68 0 -90 28.5t-22 75.5q0 59 12 147t29 175h-7q-43 -59 -95 -131 t-113.5 -134.5t-130 -105.5t-144.5 -43q-53 0 -86 37t-35 94t8.5 134t29 171t41 204.5t44.5 237.5q-47 -4 -93 -19t-99 -44zM489 1268q6 41 36 68.5t71 27.5q37 0 60.5 -27.5t17.5 -68.5q-4 -41 -34 -70t-71 -29q-35 0 -59.5 29t-20.5 70zM870 1268q4 41 34 68.5t71 27.5 q39 0 62.5 -27.5t17.5 -68.5q-4 -41 -35 -70t-68 -29q-41 0 -63.5 29t-18.5 70z" />
<glyph unicode="&#xfd;" horiz-adv-x="1067" d="M102 836q18 25 48 52t66 51t73 39t69 15q47 0 73 -13t37 -35.5t10 -54.5t-7 -71q-16 -88 -34.5 -177t-35 -170t-28 -148.5t-8.5 -112.5q2 -37 17 -57.5t38 -20.5q37 0 71.5 22.5t67.5 53.5q27 25 57.5 59.5t59.5 71.5t54.5 75t45.5 70q23 31 38 60.5t26 56.5q6 8 16 52 t19.5 96.5t16.5 101.5t9 68q4 23 8 28.5t27 12.5q29 6 55.5 11t55.5 15q6 -2 12 -6t8 -12l-86 -412q-16 -80 -41 -190.5t-61.5 -227t-87 -231.5t-115 -206t-145 -146.5t-181.5 -55.5q-55 0 -91 12.5t-56.5 30t-28.5 36t-8 32.5q0 35 17.5 59.5t72.5 53.5q14 -33 52 -59.5 t83 -26.5q74 0 132.5 52t102.5 123.5t74.5 150.5t49.5 134q27 78 51 169t43 171l-8 2q-37 -61 -94.5 -138t-125 -146.5t-143 -116.5t-151.5 -47q-53 0 -88 35.5t-35 93.5q0 111 38.5 300t86.5 445q-90 -6 -193 -63zM621 1153l278 354q51 -53 105 -98q-80 -74 -164 -154.5 t-162 -154.5z" />
<glyph unicode="&#xfe;" horiz-adv-x="1097" d="M113 -492l102 637q10 63 23.5 159.5t29 207.5t29.5 229.5t27.5 227t23.5 201t17 151.5q-53 -4 -99.5 -22.5t-97.5 -47.5l-27 37q20 25 53 52.5t71 51t77 39t74 15.5q49 0 77.5 -20.5t20.5 -94.5q-2 -29 -10 -92t-18.5 -145t-22.5 -173.5t-23.5 -173t-20.5 -145t-16 -92.5 l9 -2q135 252 249.5 368.5t212.5 116.5q66 0 114 -64.5t52 -213.5q2 -45 -1 -92.5t-9 -87.5q-18 -98 -68.5 -195.5t-114 -175.5t-133 -127t-128.5 -49q-53 0 -118 4t-142 20l-4 -4q-16 -117 -31 -237.5t-31 -225.5q-33 -20 -60.5 -30.5t-72.5 -20.5zM360 168 q45 -43 107.5 -60.5t107.5 -17.5q80 0 138.5 55.5t96.5 138.5t54.5 181t14.5 184q-4 92 -27 135t-66 43t-100 -51t-113.5 -126t-106.5 -162t-79 -158z" />
<glyph unicode="&#xff;" horiz-adv-x="1067" d="M102 836q18 25 48 52t66 51t73 39t69 15q47 0 73 -13t37 -35.5t10 -54.5t-7 -71q-16 -88 -34.5 -177t-35 -170t-28 -148.5t-8.5 -112.5q2 -37 17 -57.5t38 -20.5q37 0 71.5 22.5t67.5 53.5q27 25 57.5 59.5t59.5 71.5t54.5 75t45.5 70q23 31 38 60.5t26 56.5q6 8 16 52 t19.5 96.5t16.5 101.5t9 68q4 23 8 28.5t27 12.5q29 6 55.5 11t55.5 15q6 -2 12 -6t8 -12l-86 -412q-16 -80 -41 -190.5t-61.5 -227t-87 -231.5t-115 -206t-145 -146.5t-181.5 -55.5q-55 0 -91 12.5t-56.5 30t-28.5 36t-8 32.5q0 35 17.5 59.5t72.5 53.5q14 -33 52 -59.5 t83 -26.5q74 0 132.5 52t102.5 123.5t74.5 150.5t49.5 134q27 78 51 169t43 171l-8 2q-37 -61 -94.5 -138t-125 -146.5t-143 -116.5t-151.5 -47q-53 0 -88 35.5t-35 93.5q0 111 38.5 300t86.5 445q-90 -6 -193 -63zM426 1268q6 41 36 68.5t70 27.5q37 0 60.5 -27.5 t17.5 -68.5q-4 -41 -33.5 -70t-70.5 -29q-35 0 -59.5 29t-20.5 70zM807 1268q4 41 33.5 68.5t70.5 27.5q39 0 62.5 -27.5t17.5 -68.5q-4 -41 -34.5 -70t-67.5 -29q-41 0 -63.5 29t-18.5 70z" />
<glyph unicode="&#x152;" horiz-adv-x="1787" d="M190 514q0 199 48.5 368t141.5 291.5t230.5 192.5t313.5 70q41 0 74.5 -4.5t70.5 -8.5q51 -6 119.5 -12t185.5 -6q68 0 117 1t93 2t89 2t107 3q4 -4 8 -5t8 -5q-8 -96 -17.5 -189.5t-17.5 -189.5l-65 -10l-25 186q-6 47 -29.5 70.5t-87.5 23.5q-59 0 -141 2t-223 2 l-64 -516q123 4 246 8.5t246 8.5q-4 -35 -8 -63.5t-8 -63.5l-488 16l-57 -471q-6 -66 15.5 -86t80.5 -20q68 0 147.5 2t143.5 4q33 0 55.5 6t39.5 18.5t32.5 33t32.5 50.5l102 189l57 -15l-94 -383l-18 -16q-72 0 -120 1t-92 2t-97.5 2t-133.5 1q-63 0 -135 -5t-143.5 -11 t-143 -11.5t-135.5 -5.5q-102 0 -186 38t-145.5 108.5t-95.5 171t-34 223.5zM348 543q0 -225 90 -351t297 -126q61 0 105.5 19t54.5 91q33 256 68.5 520.5t68.5 520.5q2 41 -11 65.5t-36.5 37.5t-54.5 17t-62 4q-123 0 -219 -66.5t-162.5 -178t-102.5 -256t-36 -297.5z" />
<glyph unicode="&#x153;" horiz-adv-x="1505" d="M133 358q0 145 46 263t123 201t177.5 128t208.5 45q102 0 173 -51t106 -141q72 78 164 135t184 57q90 0 142 -64.5t56 -158.5q2 -72 -37.5 -128t-111.5 -102t-170 -83t-215 -70l-2 -4q-2 -23 -3 -42t1 -40q4 -98 42 -159.5t111 -61.5q84 0 164 45t152 113l37 -35 q-29 -37 -70 -77t-94 -74t-115.5 -55.5t-132.5 -21.5q-182 0 -238 173q-76 -82 -173 -126t-207 -44q-145 0 -231.5 102t-86.5 276zM309 399q0 -72 12.5 -133t37 -106t63.5 -72t94 -27q80 0 139.5 51.5t97.5 130.5t56 173t18 180q0 135 -52.5 224t-158.5 89q-68 0 -125 -43 t-97 -114.5t-62.5 -163.5t-22.5 -189zM987 465l4 -4q63 12 131 38.5t122 65.5t89 89.5t33 111.5q-4 66 -38 105.5t-71 39.5q-41 0 -81.5 -30.5t-77.5 -89t-67 -141.5t-44 -185z" />
<glyph unicode="&#x178;" horiz-adv-x="1239" d="M193 1339l10 70h289q-6 -92 38 -207l191 -481h18l291 479q23 37 15.5 68.5t-66.5 48.5l-64 16l11 74q104 0 208.5 1t208.5 1l-10 -74q-37 -16 -66.5 -38.5t-59 -55.5t-62.5 -77t-72 -101l-293 -440l-51 -414q-6 -53 12.5 -76.5t69.5 -36.5l90 -22l-8 -74h-516l8 63l84 27 q27 8 45 18.5t30.5 24.5t19.5 33.5t11 48.5l43 340l-268 664q-10 25 -17 39t-16.5 25t-23.5 18.5t-37 15.5zM485 1624q0 43 31 75t72 32q37 0 59.5 -25t22.5 -59q0 -47 -30 -79t-73 -32q-35 0 -58.5 24.5t-23.5 63.5zM866 1624q0 43 31 75t72 32q35 0 58.5 -25t23.5 -59 q0 -47 -31 -79t-72 -32q-35 0 -58.5 24.5t-23.5 63.5z" />
<glyph unicode="&#x2c6;" horiz-adv-x="1093" d="M262 1171q86 78 176 156t176 156h91q68 -72 141.5 -153t140.5 -156l-45 -50l-299 228q-84 -53 -173 -112.5t-177 -113.5q-6 10 -15.5 22.5t-15.5 22.5z" />
<glyph unicode="&#x2dc;" horiz-adv-x="1093" d="M303 1196q8 29 24.5 62.5t42 62.5t60.5 48.5t80 19.5q33 0 66.5 -13.5t66.5 -30t64.5 -29.5t62.5 -13q25 0 42 3t33.5 12t33 24.5t34.5 41.5l41 -14q-23 -74 -71.5 -129t-132.5 -55q-45 0 -78 12t-61.5 27.5t-57.5 28t-61 12.5q-41 0 -74 -14.5t-68 -73.5z" />
<glyph unicode="&#x2000;" horiz-adv-x="937" />
<glyph unicode="&#x2001;" horiz-adv-x="1874" />
<glyph unicode="&#x2002;" horiz-adv-x="937" />
<glyph unicode="&#x2003;" horiz-adv-x="1874" />
<glyph unicode="&#x2004;" horiz-adv-x="624" />
<glyph unicode="&#x2005;" horiz-adv-x="468" />
<glyph unicode="&#x2006;" horiz-adv-x="312" />
<glyph unicode="&#x2007;" horiz-adv-x="312" />
<glyph unicode="&#x2008;" horiz-adv-x="234" />
<glyph unicode="&#x2009;" horiz-adv-x="374" />
<glyph unicode="&#x200a;" horiz-adv-x="104" />
<glyph unicode="&#x2010;" horiz-adv-x="657" d="M156 453q4 35 8 64.5t8 64.5h459q-4 -35 -8.5 -65t-8.5 -64h-458z" />
<glyph unicode="&#x2011;" horiz-adv-x="657" d="M156 453q4 35 8 64.5t8 64.5h459q-4 -35 -8.5 -65t-8.5 -64h-458z" />
<glyph unicode="&#x2012;" horiz-adv-x="657" d="M156 453q4 35 8 64.5t8 64.5h459q-4 -35 -8.5 -65t-8.5 -64h-458z" />
<glyph unicode="&#x2013;" horiz-adv-x="972" d="M117 463l14 108h852l-14 -108h-852z" />
<glyph unicode="&#x2014;" horiz-adv-x="1945" d="M113 463l14 108h1833l-14 -108h-1833z" />
<glyph unicode="&#x2018;" horiz-adv-x="524" d="M281 1133q0 43 18 91t52 93t79 84t98 63q8 -10 14.5 -19t12.5 -20q-47 -41 -76.5 -80.5t-46.5 -111.5q31 -8 48.5 -31.5t17.5 -52.5q0 -49 -36 -84t-83 -35q-45 0 -71.5 27.5t-26.5 75.5z" />
<glyph unicode="&#x2019;" horiz-adv-x="524" d="M274 1071q49 43 80 83t43 112q-63 20 -63 84q0 49 36 82.5t81 33.5t72.5 -27.5t27.5 -78.5q0 -43 -19.5 -90t-53.5 -92t-80 -83t-97 -63q-8 10 -14 19.5t-13 19.5z" />
<glyph unicode="&#x201a;" horiz-adv-x="432" d="M61 -223q49 47 80 91t45 116q-35 10 -51 38.5t-12 65.5q6 47 41 80t78 33q47 0 74.5 -38t21.5 -97q-8 -43 -30.5 -91.5t-54.5 -93.5t-74 -83t-91 -62q-8 10 -14 20.5t-13 20.5z" />
<glyph unicode="&#x201c;" horiz-adv-x="788" d="M279 1133q0 43 19 91t53 93t79 84t98 63q8 -10 14.5 -19t12.5 -20q-47 -41 -76.5 -80.5t-46.5 -111.5q31 -8 48.5 -31.5t17.5 -52.5q0 -49 -36 -84t-83 -35t-73.5 27.5t-26.5 75.5zM545 1133q0 43 18.5 91t52 93t79.5 84t100 63q8 -10 14 -19t12 -20q-47 -41 -77.5 -80.5 t-47.5 -111.5q33 -8 50.5 -31.5t17.5 -52.5q0 -49 -37 -84t-84 -35q-45 0 -71.5 27.5t-26.5 75.5z" />
<glyph unicode="&#x201d;" horiz-adv-x="788" d="M272 1071q49 43 81 83t44 112q-66 20 -65 84q0 49 37 82.5t82 33.5t72.5 -27.5t27.5 -78.5q0 -43 -19.5 -90t-54.5 -92t-81 -83t-97 -63q-8 10 -14 19.5t-13 19.5zM541 1069q47 41 77.5 83t43.5 114q-63 20 -64 84q0 49 36 82.5t81 33.5q47 0 74.5 -27.5t27.5 -78.5 q0 -43 -19.5 -90t-54 -92t-81 -83t-97.5 -63q-6 10 -13 18.5t-11 18.5z" />
<glyph unicode="&#x201e;" horiz-adv-x="708" d="M59 -223q49 47 81 91t46 116q-33 10 -49 33.5t-16 56.5q0 51 37 89t84 38q45 0 71.5 -30t26.5 -81q0 -47 -19.5 -98t-53.5 -99.5t-80 -89.5t-101 -67q-8 10 -14 20.5t-13 20.5zM338 -223q49 47 80 91t45 116q-31 10 -47.5 33.5t-16.5 56.5q0 51 37 89t84 38 q45 0 71.5 -30t26.5 -81q0 -47 -19 -98t-53 -99.5t-81 -89.5t-100 -67q-8 10 -14.5 20.5t-12.5 20.5z" />
<glyph unicode="&#x2022;" horiz-adv-x="804" d="M258 535q0 49 16.5 91t46 73.5t69.5 50t87 18.5q84 0 144.5 -57.5t60.5 -143.5q0 -49 -15.5 -92t-44 -74.5t-68.5 -51t-91 -19.5q-41 0 -79 15t-65.5 43t-44 66t-16.5 81z" />
<glyph unicode="&#x2026;" horiz-adv-x="1189" d="M111 72q0 53 35.5 91t82.5 38q41 0 67 -28t26 -69q0 -53 -37 -90t-84 -37q-41 0 -65.5 27t-24.5 68zM502 72q0 53 36 91t83 38q41 0 66.5 -28t25.5 -69q0 -53 -37 -90t-84 -37q-41 0 -65.5 27t-24.5 68zM893 72q0 53 36 91t83 38q41 0 66.5 -28t25.5 -69q0 -53 -37 -90 t-84 -37q-41 0 -65.5 27t-24.5 68z" />
<glyph unicode="&#x202f;" horiz-adv-x="374" />
<glyph unicode="&#x2039;" horiz-adv-x="573" d="M166 395l12 88l332 353l41 -31l-258 -367l166 -362q-10 -10 -23.5 -17.5t-23.5 -15.5q-59 86 -122 176t-124 176z" />
<glyph unicode="&#x203a;" horiz-adv-x="573" d="M127 78l258 362l-168 367l55 33l246 -355l-12 -90l-332 -354z" />
<glyph unicode="&#x205f;" horiz-adv-x="468" />
<glyph unicode="&#x20ac;" d="M98 526l11 97h763l-12 -97h-504q-6 -84 7.5 -162.5t55.5 -142t114.5 -101.5t185.5 -38q20 0 56 2t82 7t96.5 15.5t97.5 26.5l26 -76q-49 -27 -104 -44t-109.5 -27.5t-102.5 -14.5t-81 -4q-121 0 -214 37t-155.5 107.5t-91.5 175t-18 239.5h-103zM131 758l10 94h92 q25 111 77 211t131 177t183.5 123t233.5 46q33 0 76 -4t90 -18.5t96 -40t97 -68.5q-12 -68 -27.5 -136.5t-28.5 -133.5h-63l-6 104q-4 57 -23.5 94t-51.5 58.5t-75 30t-94 8.5q-92 0 -170 -39t-136.5 -101.5t-97 -143.5t-53.5 -167h508l-12 -94h-756z" />
<glyph unicode="&#x2122;" horiz-adv-x="1716" d="M215 1202q0 45 2 104.5t2 102.5l8 4q70 -4 132.5 -4h144.5q72 0 140.5 1t133.5 5l8 -4q0 -53 2.5 -104.5t2.5 -104.5l-35 -4l-25 92q-8 27 -19.5 35t-45.5 8h-115v-514q0 -25 8 -36t31 -15l55 -12v-37h-274v35l45 14q23 8 31 18.5t8 47.5v499h-117q-35 0 -45 -7t-19 -38 l-22 -90zM797 723v39l53 14q25 6 35 16.5t14 49.5l35 454q4 35 -6 49.5t-39 24.5l-45 14l8 33q96 -2 195 0q6 -41 14 -61l188 -457l101 252q27 68 52 136.5t52 129.5q94 -4 191 0q0 -10 1 -18t1 -19l-41 -12q-39 -12 -45.5 -26.5t-4.5 -43.5l31 -454q4 -41 13.5 -52.5 t39.5 -19.5l41 -10v-39h-278v35l45 14q27 8 32 21.5t3 37.5l-29 433h-6q-16 -43 -34.5 -92.5t-35.5 -92.5q-33 -84 -63.5 -168t-61.5 -159h-47l-200 499h-7l-24 -415q-2 -33 7 -44.5t36 -17.5l53 -12v-39h-274z" />
<glyph unicode="&#x25fc;" horiz-adv-x="1003" d="M0 0v1004h1004v-1004h-1004z" />
</font>
</defs>
</svg>
